<?xml version="1.0" encoding="utf-8" standalone="no"?>
<!DOCTYPE svg PUBLIC "-//W3C//DTD SVG 1.1//EN"
  "http://www.w3.org/Graphics/SVG/1.1/DTD/svg11.dtd">
<!-- Created with matplotlib (https://matplotlib.org/) -->
<svg height="670.012134pt" version="1.1" viewBox="0 0 653.092134 670.012134" width="653.092134pt" xmlns="http://www.w3.org/2000/svg" xmlns:xlink="http://www.w3.org/1999/xlink">
 <metadata>
  <rdf:RDF xmlns:cc="http://creativecommons.org/ns#" xmlns:dc="http://purl.org/dc/elements/1.1/" xmlns:rdf="http://www.w3.org/1999/02/22-rdf-syntax-ns#">
   <cc:Work>
    <dc:type rdf:resource="http://purl.org/dc/dcmitype/StillImage"/>
    <dc:date>2020-09-24T10:06:24.483772</dc:date>
    <dc:format>image/svg+xml</dc:format>
    <dc:creator>
     <cc:Agent>
      <dc:title>Matplotlib v3.3.1, https://matplotlib.org/</dc:title>
     </cc:Agent>
    </dc:creator>
   </cc:Work>
  </rdf:RDF>
 </metadata>
 <defs>
  <style type="text/css">*{stroke-linecap:butt;stroke-linejoin:round;}</style>
 </defs>
 <g id="figure_1">
  <g id="patch_1">
   <path d="M 0 670.012134 
L 653.092134 670.012134 
L 653.092134 0 
L 0 0 
z
" style="fill:none;"/>
  </g>
  <g id="axes_1">
   <g id="patch_2">
    <path d="M 51.892134 313.876098 
L 341.648232 313.876098 
L 341.648232 24.12 
L 51.892134 24.12 
z
" style="fill:#ffffff;"/>
   </g>
   <g id="PolyCollection_1">
    <defs>
     <path d="M 19.279628 -356.148399 
L 19.279628 -356.136037 
L 21.063399 -356.136037 
L 22.84717 -356.136037 
L 24.630941 -356.136037 
L 26.414712 -356.136037 
L 28.198484 -356.136037 
L 29.982255 -356.136037 
L 31.766026 -356.136037 
L 33.549797 -356.136037 
L 35.333569 -356.136037 
L 37.11734 -356.136037 
L 38.901111 -356.136037 
L 40.684882 -356.136037 
L 42.468653 -356.136037 
L 44.252425 -356.136037 
L 46.036196 -356.136037 
L 47.819967 -356.136037 
L 49.603738 -356.136037 
L 51.38751 -356.136037 
L 53.171281 -356.136037 
L 54.955052 -356.136037 
L 56.738823 -356.136037 
L 58.522594 -356.136037 
L 60.306366 -356.136037 
L 62.090137 -356.136037 
L 63.873908 -356.136037 
L 65.657679 -356.136037 
L 67.441451 -356.136037 
L 69.225222 -356.136037 
L 71.008993 -356.136037 
L 72.792764 -356.136037 
L 74.576535 -356.136037 
L 76.360307 -356.136037 
L 78.144078 -356.136037 
L 79.927849 -356.136037 
L 81.71162 -356.136037 
L 83.495392 -356.136037 
L 85.279163 -356.136037 
L 87.062934 -356.136037 
L 88.846705 -356.136037 
L 90.630476 -356.136037 
L 92.414248 -356.136037 
L 94.198019 -356.136037 
L 95.98179 -356.136037 
L 97.765561 -356.136037 
L 99.549333 -356.136037 
L 101.333104 -356.136037 
L 103.116875 -356.136037 
L 104.900646 -356.136037 
L 106.684417 -356.136037 
L 108.468189 -356.136037 
L 110.25196 -356.136037 
L 112.035731 -356.136037 
L 113.819502 -356.136037 
L 115.603274 -356.136037 
L 117.387045 -356.136037 
L 119.170816 -356.136037 
L 120.954587 -356.136037 
L 122.738359 -356.136037 
L 124.52213 -356.136037 
L 126.305901 -356.136037 
L 128.089672 -356.136037 
L 129.873443 -356.136037 
L 131.657215 -356.136037 
L 133.440986 -356.136037 
L 135.224757 -356.136037 
L 137.008528 -356.136037 
L 138.7923 -356.136037 
L 140.576071 -356.136037 
L 142.359842 -356.136037 
L 144.143613 -356.136037 
L 145.927384 -356.136037 
L 147.711156 -356.136037 
L 149.494927 -356.136037 
L 151.278698 -356.136037 
L 153.062469 -356.136037 
L 154.846241 -356.136037 
L 156.630012 -356.136037 
L 158.413783 -356.136037 
L 160.197554 -356.136037 
L 161.981325 -356.136037 
L 163.765097 -356.136037 
L 165.548868 -356.136037 
L 167.332639 -356.136037 
L 169.11641 -356.136037 
L 170.900182 -356.136037 
L 172.683953 -356.136037 
L 174.467724 -356.136037 
L 176.251495 -356.136037 
L 178.035266 -356.136037 
L 179.819038 -356.136037 
L 181.602809 -356.136037 
L 183.38658 -356.136037 
L 185.170351 -356.136037 
L 186.954123 -356.136037 
L 188.737894 -356.136037 
L 190.521665 -356.136037 
L 192.305436 -356.136037 
L 194.089207 -356.136037 
L 195.872979 -356.136037 
L 197.65675 -356.136037 
L 199.440521 -356.136037 
L 201.224292 -356.136037 
L 203.008064 -356.136037 
L 204.791835 -356.136037 
L 206.575606 -356.136037 
L 208.359377 -356.136037 
L 210.143148 -356.136037 
L 211.92692 -356.136037 
L 213.710691 -356.136037 
L 215.494462 -356.136037 
L 217.278233 -356.136037 
L 219.062005 -356.136037 
L 220.845776 -356.136037 
L 222.629547 -356.136037 
L 224.413318 -356.136037 
L 226.197089 -356.136037 
L 227.980861 -356.136037 
L 229.764632 -356.136037 
L 231.548403 -356.136037 
L 233.332174 -356.136037 
L 235.115946 -356.136037 
L 236.899717 -356.136037 
L 238.683488 -356.136037 
L 240.467259 -356.136037 
L 242.25103 -356.136037 
L 244.034802 -356.136037 
L 245.818573 -356.136037 
L 247.602344 -356.136037 
L 249.386115 -356.136037 
L 251.169887 -356.136037 
L 252.953658 -356.136037 
L 254.737429 -356.136037 
L 256.5212 -356.136037 
L 258.304972 -356.136037 
L 260.088743 -356.136037 
L 261.872514 -356.136037 
L 263.656285 -356.136037 
L 265.440056 -356.136037 
L 267.223828 -356.136037 
L 269.007599 -356.136037 
L 270.79137 -356.136037 
L 272.575141 -356.136037 
L 274.358913 -356.136037 
L 276.142684 -356.136037 
L 277.926455 -356.136037 
L 279.710226 -356.136037 
L 281.493997 -356.136037 
L 283.277769 -356.136037 
L 285.06154 -356.136037 
L 286.845311 -356.136037 
L 288.629082 -356.136037 
L 290.412854 -356.136037 
L 292.196625 -356.136037 
L 293.980396 -356.136037 
L 295.764167 -356.136037 
L 297.547938 -356.136037 
L 299.33171 -356.136037 
L 301.115481 -356.136037 
L 302.899252 -356.136037 
L 304.683023 -356.136037 
L 306.466795 -356.136037 
L 308.250566 -356.136037 
L 310.034337 -356.136037 
L 311.818108 -356.136037 
L 313.601879 -356.136037 
L 315.385651 -356.136037 
L 317.169422 -356.136037 
L 318.953193 -356.136037 
L 320.736964 -356.136037 
L 322.520736 -356.136037 
L 324.304507 -356.136037 
L 326.088278 -356.136037 
L 327.872049 -356.136037 
L 329.65582 -356.136037 
L 331.439592 -356.136037 
L 333.223363 -356.136037 
L 335.007134 -356.136037 
L 336.790905 -356.136037 
L 338.574677 -356.136037 
L 340.358448 -356.136037 
L 342.142219 -356.136037 
L 343.92599 -356.136037 
L 345.709761 -356.136037 
L 347.493533 -356.136037 
L 349.277304 -356.136037 
L 351.061075 -356.136037 
L 352.844846 -356.136037 
L 354.628618 -356.136037 
L 356.412389 -356.136037 
L 358.19616 -356.136037 
L 359.979931 -356.136037 
L 361.763702 -356.136037 
L 363.547474 -356.136037 
L 365.331245 -356.136037 
L 367.115016 -356.136037 
L 368.898787 -356.136037 
L 370.682559 -356.136037 
L 372.46633 -356.136037 
L 374.250101 -356.136037 
L 374.250101 -356.165968 
L 374.250101 -356.165968 
L 372.46633 -356.185992 
L 370.682559 -356.217346 
L 368.898787 -356.265117 
L 367.115016 -356.335931 
L 365.331245 -356.438058 
L 363.547474 -356.581332 
L 361.763702 -356.776843 
L 359.979931 -357.036322 
L 358.19616 -357.371224 
L 356.412389 -357.791545 
L 354.628618 -358.304493 
L 352.844846 -358.913192 
L 351.061075 -359.615659 
L 349.277304 -360.404303 
L 347.493533 -361.266152 
L 345.709761 -362.18392 
L 343.92599 -363.13788 
L 342.142219 -364.108324 
L 340.358448 -365.078273 
L 338.574677 -366.035947 
L 336.790905 -366.976536 
L 335.007134 -367.902874 
L 333.223363 -368.824805 
L 331.439592 -369.757288 
L 329.65582 -370.717531 
L 327.872049 -371.721676 
L 326.088278 -372.781677 
L 324.304507 -373.903035 
L 322.520736 -375.08393 
L 320.736964 -376.316059 
L 318.953193 -377.587204 
L 317.169422 -378.885233 
L 315.385651 -380.202931 
L 313.601879 -381.542871 
L 311.818108 -382.921392 
L 310.034337 -384.37087 
L 308.250566 -385.939608 
L 306.466795 -387.689073 
L 304.683023 -389.688642 
L 302.899252 -392.0085 
L 301.115481 -394.711761 
L 299.33171 -397.847099 
L 297.547938 -401.443193 
L 295.764167 -405.506 
L 293.980396 -410.019325 
L 292.196625 -414.9485 
L 290.412854 -420.24633 
L 288.629082 -425.859984 
L 286.845311 -431.737355 
L 285.06154 -437.831657 
L 283.277769 -444.103526 
L 281.493997 -450.520661 
L 279.710226 -457.055688 
L 277.926455 -463.683429 
L 276.142684 -470.378844 
L 274.358913 -477.116584 
L 272.575141 -483.872517 
L 270.79137 -490.626844 
L 269.007599 -497.367793 
L 267.223828 -504.094601 
L 265.440056 -510.818548 
L 263.656285 -517.561303 
L 261.872514 -524.35052 
L 260.088743 -531.21337 
L 258.304972 -538.169233 
L 256.5212 -545.22302 
L 254.737429 -552.36043 
L 252.953658 -559.546021 
L 251.169887 -566.724352 
L 249.386115 -573.823858 
L 247.602344 -580.762658 
L 245.818573 -587.455264 
L 244.034802 -593.819207 
L 242.25103 -599.780749 
L 240.467259 -605.279192 
L 238.683488 -610.269558 
L 236.899717 -614.723649 
L 235.115946 -618.629649 
L 233.332174 -621.990481 
L 231.548403 -624.821145 
L 229.764632 -627.145271 
L 227.980861 -628.991139 
L 226.197089 -630.387491 
L 224.413318 -631.35951 
L 222.629547 -631.925431 
L 220.845776 -632.094225 
L 219.062005 -631.864741 
L 217.278233 -631.226468 
L 215.494462 -630.161816 
L 213.710691 -628.649504 
L 211.92692 -626.668385 
L 210.143148 -624.200941 
L 208.359377 -621.235794 
L 206.575606 -617.768853 
L 204.791835 -613.803177 
L 203.008064 -609.348035 
L 201.224292 -604.417914 
L 199.440521 -599.032277 
L 197.65675 -593.216572 
L 195.872979 -587.004584 
L 194.089207 -580.441657 
L 192.305436 -573.587896 
L 190.521665 -566.520255 
L 188.737894 -559.332528 
L 186.954123 -552.132598 
L 185.170351 -545.036851 
L 183.38658 -538.162229 
L 181.602809 -531.616853 
L 179.819038 -525.490471 
L 178.035266 -519.846034 
L 176.251495 -514.713598 
L 174.467724 -510.087395 
L 172.683953 -505.926509 
L 170.900182 -502.159073 
L 169.11641 -498.689426 
L 167.332639 -495.407271 
L 165.548868 -492.197646 
L 163.765097 -488.950472 
L 161.981325 -485.568617 
L 160.197554 -481.973785 
L 158.413783 -478.109915 
L 156.630012 -473.944248 
L 154.846241 -469.466499 
L 153.062469 -464.686729 
L 151.278698 -459.632496 
L 149.494927 -454.345724 
L 147.711156 -448.879543 
L 145.927384 -443.295156 
L 144.143613 -437.658723 
L 142.359842 -432.038235 
L 140.576071 -426.500377 
L 138.7923 -421.107519 
L 137.008528 -415.914983 
L 135.224757 -410.968791 
L 133.440986 -406.304061 
L 131.657215 -401.944136 
L 129.873443 -397.900483 
L 128.089672 -394.173323 
L 126.305901 -390.752899 
L 124.52213 -387.621279 
L 122.738359 -384.754586 
L 120.954587 -382.125476 
L 119.170816 -379.705708 
L 117.387045 -377.468582 
L 115.603274 -375.391003 
L 113.819502 -373.454956 
L 112.035731 -371.648208 
L 110.25196 -369.964163 
L 108.468189 -368.40092 
L 106.684417 -366.959712 
L 104.900646 -365.642998 
L 103.116875 -364.452567 
L 101.333104 -363.387957 
L 99.549333 -362.445469 
L 97.765561 -361.617885 
L 95.98179 -360.894887 
L 94.198019 -360.264034 
L 92.414248 -359.712058 
L 90.630476 -359.226208 
L 88.846705 -358.795389 
L 87.062934 -358.41093 
L 85.279163 -358.066898 
L 83.495392 -357.759974 
L 81.71162 -357.488996 
L 79.927849 -357.254299 
L 78.144078 -357.056997 
L 76.360307 -356.898321 
L 74.576535 -356.779075 
L 72.792764 -356.699238 
L 71.008993 -356.657696 
L 69.225222 -356.652076 
L 67.441451 -356.678656 
L 65.657679 -356.732348 
L 63.873908 -356.806767 
L 62.090137 -356.894418 
L 60.306366 -356.987025 
L 58.522594 -357.076017 
L 56.738823 -357.153143 
L 54.955052 -357.21115 
L 53.171281 -357.244442 
L 51.38751 -357.249609 
L 49.603738 -357.225721 
L 47.819967 -357.17435 
L 46.036196 -357.09928 
L 44.252425 -357.005974 
L 42.468653 -356.900863 
L 40.684882 -356.790599 
L 38.901111 -356.681349 
L 37.11734 -356.578262 
L 35.333569 -356.485131 
L 33.549797 -356.404288 
L 31.766026 -356.336687 
L 29.982255 -356.282132 
L 28.198484 -356.239583 
L 26.414712 -356.207475 
L 24.630941 -356.184013 
L 22.84717 -356.1674 
L 21.063399 -356.155994 
L 19.279628 -356.148399 
z
" id="m8bf762e412"/>
    </defs>
    <g clip-path="url(#pb1d042ba7a)">
     <use style="fill:#1f77b4;fill-opacity:0.5;" x="0" xlink:href="#m8bf762e412" y="670.012134"/>
    </g>
   </g>
   <g id="matplotlib.axis_1">
    <g id="xtick_1">
     <g id="line2d_1">
      <defs>
       <path d="M 0 0 
L 0 3.5 
" id="m2795877525" style="stroke:#000000;stroke-width:0.8;"/>
      </defs>
      <g>
       <use style="stroke:#000000;stroke-width:0.8;" x="60.212875" xlink:href="#m2795877525" y="313.876098"/>
      </g>
     </g>
    </g>
    <g id="xtick_2">
     <g id="line2d_2">
      <g>
       <use style="stroke:#000000;stroke-width:0.8;" x="127.978662" xlink:href="#m2795877525" y="313.876098"/>
      </g>
     </g>
    </g>
    <g id="xtick_3">
     <g id="line2d_3">
      <g>
       <use style="stroke:#000000;stroke-width:0.8;" x="195.744449" xlink:href="#m2795877525" y="313.876098"/>
      </g>
     </g>
    </g>
    <g id="xtick_4">
     <g id="line2d_4">
      <g>
       <use style="stroke:#000000;stroke-width:0.8;" x="263.510236" xlink:href="#m2795877525" y="313.876098"/>
      </g>
     </g>
    </g>
    <g id="xtick_5">
     <g id="line2d_5">
      <g>
       <use style="stroke:#000000;stroke-width:0.8;" x="331.276023" xlink:href="#m2795877525" y="313.876098"/>
      </g>
     </g>
    </g>
   </g>
   <g id="matplotlib.axis_2"/>
   <g id="line2d_6">
    <path clip-path="url(#pb1d042ba7a)" d="M 19.279628 313.863735 
L 29.982255 313.730002 
L 37.11734 313.433872 
L 49.603738 312.786413 
L 54.955052 312.800984 
L 62.090137 313.117717 
L 69.225222 313.360058 
L 74.576535 313.233059 
L 78.144078 312.955137 
L 83.495392 312.25216 
L 87.062934 311.601204 
L 90.630476 310.785926 
L 94.198019 309.748101 
L 97.765561 308.394249 
L 101.333104 306.624177 
L 104.900646 304.369136 
L 108.468189 301.611214 
L 112.035731 298.363926 
L 115.603274 294.621131 
L 119.170816 290.306426 
L 120.954587 287.886658 
L 122.738359 285.257548 
L 124.52213 282.390855 
L 126.305901 279.259236 
L 128.089672 275.838811 
L 129.873443 272.111651 
L 131.657215 268.067999 
L 133.440986 263.708073 
L 137.008528 254.097151 
L 140.576071 243.511757 
L 151.278698 210.379639 
L 154.846241 200.545635 
L 156.630012 196.067886 
L 158.413783 191.902219 
L 160.197554 188.038349 
L 163.765097 181.061663 
L 170.900182 167.853061 
L 172.683953 164.085625 
L 174.467724 159.924739 
L 176.251495 155.298536 
L 178.035266 150.1661 
L 179.819038 144.521663 
L 181.602809 138.395281 
L 185.170351 124.975283 
L 194.089207 89.570477 
L 197.65675 76.795562 
L 199.440521 70.979857 
L 201.224292 65.59422 
L 203.008064 60.6641 
L 204.791835 56.208957 
L 206.575606 52.243281 
L 208.359377 48.77634 
L 210.143148 45.811193 
L 211.92692 43.34375 
L 213.710691 41.36263 
L 215.494462 39.850318 
L 217.278233 38.785666 
L 219.062005 38.147393 
L 220.845776 37.917909 
L 222.629547 38.086704 
L 224.413318 38.652624 
L 226.197089 39.624643 
L 227.980861 41.020995 
L 229.764632 42.866863 
L 231.548403 45.190989 
L 233.332174 48.021653 
L 235.115946 51.382485 
L 236.899717 55.288485 
L 238.683488 59.742576 
L 240.467259 64.732942 
L 242.25103 70.231386 
L 244.034802 76.192927 
L 247.602344 89.249476 
L 252.953658 110.466113 
L 260.088743 138.798764 
L 267.223828 165.917533 
L 281.493997 219.491473 
L 285.06154 232.180477 
L 288.629082 244.15215 
L 292.196625 255.063635 
L 293.980396 259.99281 
L 295.764167 264.506134 
L 297.547938 268.568941 
L 299.33171 272.165035 
L 301.115481 275.300373 
L 302.899252 278.003634 
L 304.683023 280.323493 
L 306.466795 282.323061 
L 308.250566 284.072526 
L 311.818108 287.090742 
L 317.169422 291.126902 
L 322.520736 294.928204 
L 326.088278 297.230458 
L 329.65582 299.294603 
L 345.709761 307.828214 
L 349.277304 309.607832 
L 352.844846 311.098942 
L 356.412389 312.220589 
L 359.979931 312.975812 
L 363.547474 313.430802 
L 367.115016 313.676203 
L 372.46633 313.826142 
L 374.250101 313.846167 
L 374.250101 313.846167 
" style="fill:none;stroke:#1f77b4;stroke-linecap:square;stroke-width:1.5;"/>
   </g>
   <g id="line2d_7">
    <path clip-path="url(#pb1d042ba7a)" d="M 229.627342 313.876098 
L 229.627342 24.12 
" style="fill:none;stroke:#000000;stroke-linecap:square;"/>
   </g>
   <g id="patch_3">
    <path d="M 51.892134 313.876098 
L 51.892134 24.12 
" style="fill:none;stroke:#000000;stroke-linecap:square;stroke-linejoin:miter;stroke-width:0.8;"/>
   </g>
   <g id="patch_4">
    <path d="M 341.648232 313.876098 
L 341.648232 24.12 
" style="fill:none;stroke:#000000;stroke-linecap:square;stroke-linejoin:miter;stroke-width:0.8;"/>
   </g>
   <g id="patch_5">
    <path d="M 51.892134 313.876098 
L 341.648232 313.876098 
" style="fill:none;stroke:#000000;stroke-linecap:square;stroke-linejoin:miter;stroke-width:0.8;"/>
   </g>
   <g id="patch_6">
    <path d="M 51.892134 24.12 
L 341.648232 24.12 
" style="fill:none;stroke:#000000;stroke-linecap:square;stroke-linejoin:miter;stroke-width:0.8;"/>
   </g>
   <g id="text_1">
    <!-- m = ${3.47}_{-0.25}^{+0.25}$ -->
    <g transform="translate(155.850183 18.12)scale(0.12 -0.12)">
     <defs>
      <path d="M 52 44.1875 
Q 55.375 50.25 60.0625 53.125 
Q 64.75 56 71.09375 56 
Q 79.640625 56 84.28125 50.015625 
Q 88.921875 44.046875 88.921875 33.015625 
L 88.921875 0 
L 79.890625 0 
L 79.890625 32.71875 
Q 79.890625 40.578125 77.09375 44.375 
Q 74.3125 48.1875 68.609375 48.1875 
Q 61.625 48.1875 57.5625 43.546875 
Q 53.515625 38.921875 53.515625 30.90625 
L 53.515625 0 
L 44.484375 0 
L 44.484375 32.71875 
Q 44.484375 40.625 41.703125 44.40625 
Q 38.921875 48.1875 33.109375 48.1875 
Q 26.21875 48.1875 22.15625 43.53125 
Q 18.109375 38.875 18.109375 30.90625 
L 18.109375 0 
L 9.078125 0 
L 9.078125 54.6875 
L 18.109375 54.6875 
L 18.109375 46.1875 
Q 21.1875 51.21875 25.484375 53.609375 
Q 29.78125 56 35.6875 56 
Q 41.65625 56 45.828125 52.96875 
Q 50 49.953125 52 44.1875 
z
" id="DejaVuSans-109"/>
      <path id="DejaVuSans-32"/>
      <path d="M 10.59375 45.40625 
L 73.1875 45.40625 
L 73.1875 37.203125 
L 10.59375 37.203125 
z
M 10.59375 25.484375 
L 73.1875 25.484375 
L 73.1875 17.1875 
L 10.59375 17.1875 
z
" id="DejaVuSans-61"/>
      <path d="M 40.578125 39.3125 
Q 47.65625 37.796875 51.625 33 
Q 55.609375 28.21875 55.609375 21.1875 
Q 55.609375 10.40625 48.1875 4.484375 
Q 40.765625 -1.421875 27.09375 -1.421875 
Q 22.515625 -1.421875 17.65625 -0.515625 
Q 12.796875 0.390625 7.625 2.203125 
L 7.625 11.71875 
Q 11.71875 9.328125 16.59375 8.109375 
Q 21.484375 6.890625 26.8125 6.890625 
Q 36.078125 6.890625 40.9375 10.546875 
Q 45.796875 14.203125 45.796875 21.1875 
Q 45.796875 27.640625 41.28125 31.265625 
Q 36.765625 34.90625 28.71875 34.90625 
L 20.21875 34.90625 
L 20.21875 43.015625 
L 29.109375 43.015625 
Q 36.375 43.015625 40.234375 45.921875 
Q 44.09375 48.828125 44.09375 54.296875 
Q 44.09375 59.90625 40.109375 62.90625 
Q 36.140625 65.921875 28.71875 65.921875 
Q 24.65625 65.921875 20.015625 65.03125 
Q 15.375 64.15625 9.8125 62.3125 
L 9.8125 71.09375 
Q 15.4375 72.65625 20.34375 73.4375 
Q 25.25 74.21875 29.59375 74.21875 
Q 40.828125 74.21875 47.359375 69.109375 
Q 53.90625 64.015625 53.90625 55.328125 
Q 53.90625 49.265625 50.4375 45.09375 
Q 46.96875 40.921875 40.578125 39.3125 
z
" id="DejaVuSans-51"/>
      <path d="M 10.6875 12.40625 
L 21 12.40625 
L 21 0 
L 10.6875 0 
z
" id="DejaVuSans-46"/>
      <path d="M 37.796875 64.3125 
L 12.890625 25.390625 
L 37.796875 25.390625 
z
M 35.203125 72.90625 
L 47.609375 72.90625 
L 47.609375 25.390625 
L 58.015625 25.390625 
L 58.015625 17.1875 
L 47.609375 17.1875 
L 47.609375 0 
L 37.796875 0 
L 37.796875 17.1875 
L 4.890625 17.1875 
L 4.890625 26.703125 
z
" id="DejaVuSans-52"/>
      <path d="M 8.203125 72.90625 
L 55.078125 72.90625 
L 55.078125 68.703125 
L 28.609375 0 
L 18.3125 0 
L 43.21875 64.59375 
L 8.203125 64.59375 
z
" id="DejaVuSans-55"/>
      <path d="M 46 62.703125 
L 46 35.5 
L 73.1875 35.5 
L 73.1875 27.203125 
L 46 27.203125 
L 46 0 
L 37.796875 0 
L 37.796875 27.203125 
L 10.59375 27.203125 
L 10.59375 35.5 
L 37.796875 35.5 
L 37.796875 62.703125 
z
" id="DejaVuSans-43"/>
      <path d="M 31.78125 66.40625 
Q 24.171875 66.40625 20.328125 58.90625 
Q 16.5 51.421875 16.5 36.375 
Q 16.5 21.390625 20.328125 13.890625 
Q 24.171875 6.390625 31.78125 6.390625 
Q 39.453125 6.390625 43.28125 13.890625 
Q 47.125 21.390625 47.125 36.375 
Q 47.125 51.421875 43.28125 58.90625 
Q 39.453125 66.40625 31.78125 66.40625 
z
M 31.78125 74.21875 
Q 44.046875 74.21875 50.515625 64.515625 
Q 56.984375 54.828125 56.984375 36.375 
Q 56.984375 17.96875 50.515625 8.265625 
Q 44.046875 -1.421875 31.78125 -1.421875 
Q 19.53125 -1.421875 13.0625 8.265625 
Q 6.59375 17.96875 6.59375 36.375 
Q 6.59375 54.828125 13.0625 64.515625 
Q 19.53125 74.21875 31.78125 74.21875 
z
" id="DejaVuSans-48"/>
      <path d="M 19.1875 8.296875 
L 53.609375 8.296875 
L 53.609375 0 
L 7.328125 0 
L 7.328125 8.296875 
Q 12.9375 14.109375 22.625 23.890625 
Q 32.328125 33.6875 34.8125 36.53125 
Q 39.546875 41.84375 41.421875 45.53125 
Q 43.3125 49.21875 43.3125 52.78125 
Q 43.3125 58.59375 39.234375 62.25 
Q 35.15625 65.921875 28.609375 65.921875 
Q 23.96875 65.921875 18.8125 64.3125 
Q 13.671875 62.703125 7.8125 59.421875 
L 7.8125 69.390625 
Q 13.765625 71.78125 18.9375 73 
Q 24.125 74.21875 28.421875 74.21875 
Q 39.75 74.21875 46.484375 68.546875 
Q 53.21875 62.890625 53.21875 53.421875 
Q 53.21875 48.921875 51.53125 44.890625 
Q 49.859375 40.875 45.40625 35.40625 
Q 44.1875 33.984375 37.640625 27.21875 
Q 31.109375 20.453125 19.1875 8.296875 
z
" id="DejaVuSans-50"/>
      <path d="M 10.796875 72.90625 
L 49.515625 72.90625 
L 49.515625 64.59375 
L 19.828125 64.59375 
L 19.828125 46.734375 
Q 21.96875 47.46875 24.109375 47.828125 
Q 26.265625 48.1875 28.421875 48.1875 
Q 40.625 48.1875 47.75 41.5 
Q 54.890625 34.8125 54.890625 23.390625 
Q 54.890625 11.625 47.5625 5.09375 
Q 40.234375 -1.421875 26.90625 -1.421875 
Q 22.3125 -1.421875 17.546875 -0.640625 
Q 12.796875 0.140625 7.71875 1.703125 
L 7.71875 11.625 
Q 12.109375 9.234375 16.796875 8.0625 
Q 21.484375 6.890625 26.703125 6.890625 
Q 35.15625 6.890625 40.078125 11.328125 
Q 45.015625 15.765625 45.015625 23.390625 
Q 45.015625 31 40.078125 35.4375 
Q 35.15625 39.890625 26.703125 39.890625 
Q 22.75 39.890625 18.8125 39.015625 
Q 14.890625 38.140625 10.796875 36.28125 
z
" id="DejaVuSans-53"/>
      <path d="M 10.59375 35.5 
L 73.1875 35.5 
L 73.1875 27.203125 
L 10.59375 27.203125 
z
" id="DejaVuSans-8722"/>
     </defs>
     <use transform="translate(0 0.765625)" xlink:href="#DejaVuSans-109"/>
     <use transform="translate(97.412109 0.765625)" xlink:href="#DejaVuSans-32"/>
     <use transform="translate(129.199219 0.765625)" xlink:href="#DejaVuSans-61"/>
     <use transform="translate(212.988281 0.765625)" xlink:href="#DejaVuSans-32"/>
     <use transform="translate(244.775391 0.765625)" xlink:href="#DejaVuSans-51"/>
     <use transform="translate(308.398438 0.765625)" xlink:href="#DejaVuSans-46"/>
     <use transform="translate(340.185547 0.765625)" xlink:href="#DejaVuSans-52"/>
     <use transform="translate(403.808594 0.765625)" xlink:href="#DejaVuSans-55"/>
     <use transform="translate(468.388672 39.046875)scale(0.7)" xlink:href="#DejaVuSans-43"/>
     <use transform="translate(527.041016 39.046875)scale(0.7)" xlink:href="#DejaVuSans-48"/>
     <use transform="translate(571.577148 39.046875)scale(0.7)" xlink:href="#DejaVuSans-46"/>
     <use transform="translate(589.978125 39.046875)scale(0.7)" xlink:href="#DejaVuSans-50"/>
     <use transform="translate(634.514258 39.046875)scale(0.7)" xlink:href="#DejaVuSans-53"/>
     <use transform="translate(468.388672 -26.578125)scale(0.7)" xlink:href="#DejaVuSans-8722"/>
     <use transform="translate(527.041016 -26.578125)scale(0.7)" xlink:href="#DejaVuSans-48"/>
     <use transform="translate(571.577148 -26.578125)scale(0.7)" xlink:href="#DejaVuSans-46"/>
     <use transform="translate(589.978125 -26.578125)scale(0.7)" xlink:href="#DejaVuSans-50"/>
     <use transform="translate(634.514258 -26.578125)scale(0.7)" xlink:href="#DejaVuSans-53"/>
    </g>
   </g>
  </g>
  <g id="axes_2"/>
  <g id="axes_3">
   <g id="patch_7">
    <path d="M 51.892134 618.12 
L 341.648232 618.12 
L 341.648232 328.363902 
L 51.892134 328.363902 
z
" style="fill:#ffffff;"/>
   </g>
   <g id="PathCollection_1">
    <path clip-path="url(#pefa20f6e79)" d="M 294.866833 556.003488 
L 296.735442 556.270886 
L 298.604051 556.118391 
L 299.105163 555.933812 
L 300.47266 555.174538 
L 301.59477 554.116422 
L 302.341269 553.337454 
L 303.127849 552.299032 
L 304.209878 550.529479 
L 304.231061 550.481642 
L 304.755434 548.664252 
L 304.943747 546.846863 
L 304.954411 545.029473 
L 304.917786 543.212083 
L 304.933449 541.394693 
L 305.070874 539.577303 
L 305.338832 537.759913 
L 305.641828 535.942523 
L 305.806986 534.125133 
L 305.703152 532.307743 
L 305.312774 530.490353 
L 304.688291 528.672963 
L 304.209878 527.583279 
L 303.922011 526.855574 
L 303.098162 525.038184 
L 302.341269 523.477335 
L 302.227016 523.220794 
L 301.426184 521.403404 
L 300.632873 519.586014 
L 300.47266 519.204272 
L 299.923134 517.768624 
L 299.217213 515.951234 
L 298.604051 514.476145 
L 298.476829 514.133844 
L 297.692857 512.316454 
L 296.796124 510.499064 
L 296.735442 510.397629 
L 295.82797 508.681674 
L 294.866833 507.09132 
L 294.744785 506.864284 
L 293.604436 505.046895 
L 292.998224 504.193703 
L 292.381115 503.229505 
L 291.129615 501.489254 
L 291.079268 501.412115 
L 289.759317 499.594725 
L 289.261006 498.972001 
L 288.37999 497.777335 
L 287.392397 496.55725 
L 286.94352 495.959945 
L 285.523788 494.230278 
L 285.456435 494.142555 
L 283.96806 492.325165 
L 283.65518 491.966949 
L 282.444365 490.507775 
L 281.786571 489.763028 
L 280.879639 488.690385 
L 279.917962 487.614227 
L 279.278979 486.872995 
L 278.049353 485.512813 
L 277.647549 485.055606 
L 276.180744 483.450557 
L 275.99067 483.238216 
L 274.314253 481.420826 
L 274.312135 481.418518 
L 272.661383 479.603436 
L 272.443526 479.366285 
L 270.997104 477.786046 
L 270.574917 477.326185 
L 269.327801 475.968656 
L 268.706308 475.290195 
L 267.659074 474.151266 
L 266.837699 473.251566 
L 265.995136 472.333876 
L 264.96909 471.205739 
L 264.338195 470.516486 
L 263.100481 469.151346 
L 262.687956 468.699096 
L 261.231872 467.091 
L 261.04143 466.881706 
L 259.399207 465.064316 
L 259.363263 465.024347 
L 257.781259 463.246927 
L 257.494654 462.933199 
L 256.13728 461.429537 
L 255.626046 460.880718 
L 254.459176 459.612147 
L 253.757437 458.875322 
L 252.740805 457.794757 
L 251.888828 456.921006 
L 250.978372 455.977367 
L 250.020219 455.017726 
L 249.170382 454.159977 
L 248.15161 453.16252 
L 247.317282 452.342587 
L 246.283001 451.350804 
L 245.420949 450.525197 
L 244.414392 449.577491 
L 243.484158 448.707807 
L 242.545783 447.837763 
L 241.510109 446.890417 
L 240.677174 446.127528 
L 239.502063 445.073027 
L 238.808565 444.443593 
L 237.463112 443.255638 
L 236.939956 442.783674 
L 235.396071 441.438248 
L 235.071347 441.146254 
L 233.303477 439.620858 
L 233.202738 439.530351 
L 231.334129 437.91574 
L 231.198306 437.803468 
L 229.465521 436.302278 
L 229.079742 435.986078 
L 227.596912 434.702931 
L 226.941722 434.168688 
L 225.728303 433.118326 
L 224.785557 432.351298 
L 223.859694 431.549041 
L 222.612246 430.533908 
L 221.991085 429.995308 
L 220.42224 428.716518 
L 220.122476 428.456795 
L 218.253867 426.929194 
L 218.214987 426.899128 
L 216.385258 425.391495 
L 215.985874 425.081738 
L 214.516649 423.875182 
L 213.730194 423.264348 
L 212.64804 422.381787 
L 211.442393 421.446959 
L 210.779431 420.912175 
L 209.115278 419.629569 
L 208.910822 419.467094 
L 207.042213 418.045822 
L 206.720834 417.812179 
L 205.173604 416.657268 
L 204.249615 415.994789 
L 203.304996 415.304563 
L 201.701416 414.177399 
L 201.436387 413.988471 
L 199.567778 412.715307 
L 199.024682 412.360009 
L 197.699169 411.485587 
L 196.21229 410.542619 
L 195.83056 410.298741 
L 193.961951 409.153578 
L 193.235577 408.725229 
L 192.093342 408.049142 
L 190.224733 406.987326 
L 190.081948 406.907839 
L 188.356124 405.943597 
L 186.761973 405.090449 
L 186.487515 404.942478 
L 184.618906 403.948318 
L 183.301642 403.273059 
L 182.750297 402.9869 
L 180.881688 402.038529 
L 179.690699 401.455669 
L 179.013079 401.117141 
L 177.144471 400.221177 
L 175.866534 399.63828 
L 175.275862 399.360339 
L 173.407253 398.545214 
L 171.62193 397.82089 
L 171.538644 397.78558 
L 169.670035 397.110098 
L 167.801426 396.5265 
L 165.932817 396.073272 
L 165.496492 396.0035 
L 164.064208 395.747698 
L 162.195599 395.513392 
L 160.32699 395.321604 
L 158.458381 395.116264 
L 156.589772 394.868433 
L 154.721163 394.572885 
L 152.852554 394.232028 
L 152.639075 394.18611 
L 150.983946 393.786576 
L 149.115337 393.331742 
L 147.246728 392.881292 
L 145.378119 392.442378 
L 145.029388 392.36872 
L 143.50951 392.012713 
L 141.640901 391.657805 
L 139.772292 391.41308 
L 137.903683 391.312728 
L 136.035074 391.373293 
L 134.166465 391.578638 
L 132.297856 391.898943 
L 130.429247 392.332035 
L 130.307655 392.36872 
L 128.560638 393.008776 
L 126.768309 394.18611 
L 126.692029 394.281961 
L 125.749436 396.0035 
L 125.444969 397.82089 
L 125.437466 399.63828 
L 125.538493 401.455669 
L 125.640943 403.273059 
L 125.662465 405.090449 
L 125.519808 406.907839 
L 125.115354 408.725229 
L 124.823421 409.471045 
L 124.259608 410.542619 
L 123.122611 412.360009 
L 122.954812 412.72066 
L 122.420938 414.177399 
L 122.373442 415.994789 
L 122.734965 417.812179 
L 122.954812 418.419075 
L 123.360888 419.629569 
L 124.128073 421.446959 
L 124.823421 422.893537 
L 124.991579 423.264348 
L 125.929685 425.081738 
L 126.692029 426.440829 
L 126.937396 426.899128 
L 128.000555 428.716518 
L 128.560638 429.592218 
L 129.138078 430.533908 
L 130.357626 432.351298 
L 130.429247 432.448989 
L 131.639312 434.168688 
L 132.297856 435.02296 
L 133.012699 435.986078 
L 134.166465 437.413838 
L 134.470579 437.803468 
L 136.001472 439.620858 
L 136.035074 439.658465 
L 137.580661 441.438248 
L 137.903683 441.790517 
L 139.215198 443.255638 
L 139.772292 443.851545 
L 140.892011 445.073027 
L 141.640901 445.86348 
L 142.599223 446.890417 
L 143.50951 447.843228 
L 144.326793 448.707807 
L 145.378119 449.803123 
L 146.066997 450.525197 
L 147.246728 451.751318 
L 147.814704 452.342587 
L 149.115337 453.692139 
L 149.567421 454.159977 
L 150.983946 455.626513 
L 151.32512 455.977367 
L 152.852554 457.55257 
L 153.089865 457.794757 
L 154.721163 459.466473 
L 154.865292 459.612147 
L 156.589772 461.363406 
L 156.655992 461.429537 
L 158.458381 463.238556 
L 158.466883 463.246927 
L 160.29978 465.064316 
L 160.32699 465.091387 
L 162.164094 466.881706 
L 162.195599 466.912475 
L 164.064208 468.699096 
L 165.932817 470.458834 
L 165.995567 470.516486 
L 167.801426 472.1879 
L 167.963133 472.333876 
L 169.670035 473.886691 
L 169.968179 474.151266 
L 171.538644 475.555713 
L 172.01178 475.968656 
L 173.407253 477.195532 
L 174.094917 477.786046 
L 175.275862 478.806858 
L 176.218408 479.603436 
L 177.144471 480.390647 
L 178.382648 481.420826 
L 179.013079 481.948157 
L 180.58721 483.238216 
L 180.881688 483.480888 
L 182.750297 484.996116 
L 182.823775 485.055606 
L 184.618906 486.514627 
L 185.065761 486.872995 
L 186.487515 488.019434 
L 187.330536 488.690385 
L 188.356124 489.513687 
L 189.611362 490.507775 
L 190.224733 491.000026 
L 191.900381 492.325165 
L 192.093342 492.480721 
L 193.961951 493.981709 
L 194.162454 494.142555 
L 195.83056 495.508136 
L 196.391026 495.959945 
L 197.699169 497.044639 
L 198.599395 497.777335 
L 199.567778 498.594583 
L 200.778439 499.594725 
L 201.436387 500.162545 
L 202.918364 501.412115 
L 203.304996 501.754805 
L 205.009384 503.229505 
L 205.173604 503.37951 
L 207.042213 505.046342 
L 207.042845 505.046895 
L 208.910822 506.78267 
L 209.001488 506.864284 
L 210.779431 508.5656 
L 210.904626 508.681674 
L 212.64804 510.397147 
L 212.754842 510.499064 
L 214.516649 512.273726 
L 214.560331 512.316454 
L 216.33178 514.133844 
L 216.385258 514.189707 
L 218.091236 515.951234 
L 218.253867 516.11936 
L 219.8682 517.768624 
L 220.122476 518.025229 
L 221.690124 519.586014 
L 221.991085 519.878716 
L 223.585063 521.403404 
L 223.859694 521.658027 
L 225.581051 523.220794 
L 225.728303 523.349876 
L 227.596912 524.947107 
L 227.707187 525.038184 
L 229.465521 526.446465 
L 229.997187 526.855574 
L 231.334129 527.854619 
L 232.478914 528.672963 
L 233.202738 529.177994 
L 235.071347 530.420797 
L 235.180942 530.490353 
L 236.939956 531.589906 
L 238.153193 532.307743 
L 238.808565 532.692987 
L 240.677174 533.734883 
L 241.41616 534.125133 
L 242.545783 534.724139 
L 244.414392 535.657856 
L 245.020703 535.942523 
L 246.283001 536.544157 
L 248.15161 537.37226 
L 249.103097 537.759913 
L 250.020219 538.143189 
L 251.888828 538.835515 
L 253.757437 539.449817 
L 254.252106 539.577303 
L 255.626046 539.943866 
L 257.494654 540.304476 
L 259.363263 540.530073 
L 261.231872 540.645455 
L 263.100481 540.736766 
L 264.96909 540.91772 
L 266.837699 541.257639 
L 267.30913 541.394693 
L 268.706308 541.811903 
L 270.574917 542.542874 
L 272.013913 543.212083 
L 272.443526 543.413565 
L 274.312135 544.430491 
L 275.321391 545.029473 
L 276.180744 545.538785 
L 278.049353 546.718947 
L 278.245225 546.846863 
L 279.917962 547.936384 
L 281.016045 548.664252 
L 281.786571 549.169267 
L 283.65518 550.395673 
L 283.792834 550.481642 
L 285.523788 551.558761 
L 286.753137 552.299032 
L 287.392397 552.682042 
L 289.261006 553.710943 
L 290.091033 554.116422 
L 291.129615 554.625973 
L 292.998224 555.396824 
L 294.654282 555.933812 
z
M 272.443526 525.038184 
L 270.574917 524.557577 
L 268.706308 524.0353 
L 266.837699 523.489496 
L 265.944279 523.220794 
L 264.96909 522.934505 
L 263.100481 522.400493 
L 261.231872 521.887137 
L 259.417752 521.403404 
L 259.363263 521.389246 
L 257.494654 520.921209 
L 255.626046 520.452968 
L 253.757437 519.961274 
L 252.458497 519.586014 
L 251.888828 519.429144 
L 250.020219 518.859446 
L 248.15161 518.217407 
L 247.005394 517.768624 
L 246.283001 517.501458 
L 244.414392 516.735824 
L 242.72606 515.951234 
L 242.545783 515.871856 
L 240.677174 514.986193 
L 239.071228 514.133844 
L 238.808565 514.001296 
L 236.939956 513.003927 
L 235.762784 512.316454 
L 235.071347 511.931341 
L 233.202738 510.826366 
L 232.67931 510.499064 
L 231.334129 509.695379 
L 229.749441 508.681674 
L 229.465521 508.506406 
L 227.596912 507.315464 
L 226.924264 506.864284 
L 225.728303 506.090314 
L 224.196376 505.046895 
L 223.859694 504.823673 
L 221.991085 503.544153 
L 221.55057 503.229505 
L 220.122476 502.237311 
L 218.986036 501.412115 
L 218.253867 500.890924 
L 216.50294 499.594725 
L 216.385258 499.508742 
L 214.516649 498.102159 
L 214.100832 497.777335 
L 212.64804 496.65592 
L 211.776832 495.959945 
L 210.779431 495.168278 
L 209.526134 494.142555 
L 208.910822 493.640149 
L 207.343763 492.325165 
L 207.042213 492.072008 
L 205.223707 490.507775 
L 205.173604 490.464585 
L 203.304996 488.823559 
L 203.155514 488.690385 
L 201.436387 487.148469 
L 201.132717 486.872995 
L 199.567778 485.441655 
L 199.148797 485.055606 
L 197.699169 483.706832 
L 197.197135 483.238216 
L 195.83056 481.947352 
L 195.272459 481.420826 
L 193.961951 480.165651 
L 193.371326 479.603436 
L 192.093342 478.362723 
L 191.492409 477.786046 
L 190.224733 476.537735 
L 189.636556 475.968656 
L 188.356124 474.687806 
L 187.80664 474.151266 
L 186.487515 472.807972 
L 186.007214 472.333876 
L 184.618906 470.89132 
L 184.244033 470.516486 
L 182.750297 468.929365 
L 182.523434 468.699096 
L 180.881688 466.912795 
L 180.851568 466.881706 
L 179.209408 465.064316 
L 179.013079 464.828604 
L 177.612714 463.246927 
L 177.144471 462.671593 
L 176.064473 461.429537 
L 175.275862 460.445104 
L 174.560683 459.612147 
L 173.407253 458.163318 
L 173.092528 457.794757 
L 171.635662 455.977367 
L 171.538644 455.850417 
L 170.154533 454.159977 
L 169.670035 453.542323 
L 168.666496 452.342587 
L 167.801426 451.273936 
L 167.159903 450.525197 
L 165.932817 449.054707 
L 165.629343 448.707807 
L 164.079005 446.890417 
L 164.064208 446.872414 
L 162.52337 445.073027 
L 162.195599 444.6725 
L 161.000005 443.255638 
L 160.32699 442.407265 
L 159.541634 441.438248 
L 158.458381 439.984666 
L 158.183354 439.620858 
L 156.985866 437.803468 
L 156.589772 437.079991 
L 155.985456 435.986078 
L 155.239786 434.168688 
L 154.798659 432.351298 
L 154.823077 430.533908 
L 155.48238 428.716518 
L 156.589772 427.040322 
L 156.701698 426.899128 
L 158.077564 425.081738 
L 158.458381 424.486819 
L 159.27784 423.264348 
L 160.32699 421.933682 
L 160.902558 421.446959 
L 162.195599 420.747229 
L 164.064208 420.279966 
L 165.932817 420.085856 
L 167.801426 419.973854 
L 169.670035 419.854307 
L 171.538644 419.732139 
L 173.407253 419.699643 
L 175.275862 419.847862 
L 177.144471 420.179517 
L 179.013079 420.644049 
L 180.881688 421.205462 
L 181.529075 421.446959 
L 182.750297 421.891647 
L 184.618906 422.639275 
L 186.047697 423.264348 
L 186.487515 423.449435 
L 188.356124 424.312886 
L 189.914699 425.081738 
L 190.224733 425.227254 
L 192.093342 426.172736 
L 193.431381 426.899128 
L 193.961951 427.171238 
L 195.83056 428.1903 
L 196.72769 428.716518 
L 197.699169 429.253258 
L 199.567778 430.351059 
L 199.861605 430.533908 
L 201.436387 431.458065 
L 202.860493 432.351298 
L 203.304996 432.616564 
L 205.173604 433.7787 
L 205.771005 434.168688 
L 207.042213 434.962048 
L 208.592764 435.986078 
L 208.910822 436.188717 
L 210.779431 437.40616 
L 211.368088 437.803468 
L 212.64804 438.641716 
L 214.075792 439.620858 
L 214.516649 439.916514 
L 216.385258 441.19414 
L 216.737741 441.438248 
L 218.253867 442.469686 
L 219.365439 443.255638 
L 220.122476 443.784393 
L 221.904937 445.073027 
L 221.991085 445.134826 
L 223.859694 446.464072 
L 224.44133 446.890417 
L 225.728303 447.826216 
L 226.900208 448.707807 
L 227.596912 449.228603 
L 229.277465 450.525197 
L 229.465521 450.669491 
L 231.334129 452.121419 
L 231.611405 452.342587 
L 233.202738 453.597057 
L 233.890659 454.159977 
L 235.071347 455.113431 
L 236.103574 455.977367 
L 236.939956 456.667031 
L 238.261759 457.794757 
L 238.808565 458.253643 
L 240.376113 459.612147 
L 240.677174 459.868488 
L 242.456395 461.429537 
L 242.545783 461.506556 
L 244.414392 463.157009 
L 244.512775 463.246927 
L 246.283001 464.820379 
L 246.548251 465.064316 
L 248.15161 466.50048 
L 248.56415 466.881706 
L 250.020219 468.196401 
L 250.56158 468.699096 
L 251.888828 469.909193 
L 252.538707 470.516486 
L 253.757437 471.642037 
L 254.490996 472.333876 
L 255.626046 473.400384 
L 256.411653 474.151266 
L 257.494654 475.192151 
L 258.292217 475.968656 
L 259.363263 477.028004 
L 260.123222 477.786046 
L 261.231872 478.921767 
L 261.894832 479.603436 
L 263.100481 480.890947 
L 263.597346 481.420826 
L 264.96909 482.957379 
L 265.221505 483.238216 
L 266.753978 485.055606 
L 266.837699 485.164703 
L 268.171475 486.872995 
L 268.706308 487.624354 
L 269.482036 488.690385 
L 270.574917 490.353135 
L 270.679361 490.507775 
L 271.718844 492.325165 
L 272.443526 493.780183 
L 272.629678 494.142555 
L 273.383135 495.959945 
L 274.014934 497.777335 
L 274.312135 498.798624 
L 274.547989 499.594725 
L 275.042509 501.412115 
L 275.545942 503.229505 
L 276.093415 505.046895 
L 276.180744 505.297282 
L 276.721784 506.864284 
L 277.405303 508.681674 
L 278.049353 510.285145 
L 278.135009 510.499064 
L 278.885413 512.316454 
L 279.620546 514.133844 
L 279.917962 514.933241 
L 280.302677 515.951234 
L 280.868126 517.768624 
L 281.267076 519.586014 
L 281.385281 521.403404 
L 280.987246 523.220794 
L 279.917962 524.642532 
L 279.254017 525.038184 
L 278.049353 525.447603 
L 276.180744 525.571525 
L 274.312135 525.392405 
z
" style="fill:#7bb6f3;fill-opacity:0.5;"/>
   </g>
   <g id="PathCollection_2">
    <path clip-path="url(#pefa20f6e79)" d="M 274.312135 525.392405 
L 276.180744 525.571525 
L 278.049353 525.447603 
L 279.254017 525.038184 
L 279.917962 524.642532 
L 280.987246 523.220794 
L 281.385281 521.403404 
L 281.267076 519.586014 
L 280.868126 517.768624 
L 280.302677 515.951234 
L 279.917962 514.933241 
L 279.620546 514.133844 
L 278.885413 512.316454 
L 278.135009 510.499064 
L 278.049353 510.285145 
L 277.405303 508.681674 
L 276.721784 506.864284 
L 276.180744 505.297282 
L 276.093415 505.046895 
L 275.545942 503.229505 
L 275.042509 501.412115 
L 274.547989 499.594725 
L 274.312135 498.798624 
L 274.014934 497.777335 
L 273.383135 495.959945 
L 272.629678 494.142555 
L 272.443526 493.780183 
L 271.718844 492.325165 
L 270.679361 490.507775 
L 270.574917 490.353135 
L 269.482036 488.690385 
L 268.706308 487.624354 
L 268.171475 486.872995 
L 266.837699 485.164703 
L 266.753978 485.055606 
L 265.221505 483.238216 
L 264.96909 482.957379 
L 263.597346 481.420826 
L 263.100481 480.890947 
L 261.894832 479.603436 
L 261.231872 478.921767 
L 260.123222 477.786046 
L 259.363263 477.028004 
L 258.292217 475.968656 
L 257.494654 475.192151 
L 256.411653 474.151266 
L 255.626046 473.400384 
L 254.490996 472.333876 
L 253.757437 471.642037 
L 252.538707 470.516486 
L 251.888828 469.909193 
L 250.56158 468.699096 
L 250.020219 468.196401 
L 248.56415 466.881706 
L 248.15161 466.50048 
L 246.548251 465.064316 
L 246.283001 464.820379 
L 244.512775 463.246927 
L 244.414392 463.157009 
L 242.545783 461.506556 
L 242.456395 461.429537 
L 240.677174 459.868488 
L 240.376113 459.612147 
L 238.808565 458.253643 
L 238.261759 457.794757 
L 236.939956 456.667031 
L 236.103574 455.977367 
L 235.071347 455.113431 
L 233.890659 454.159977 
L 233.202738 453.597057 
L 231.611405 452.342587 
L 231.334129 452.121419 
L 229.465521 450.669491 
L 229.277465 450.525197 
L 227.596912 449.228603 
L 226.900208 448.707807 
L 225.728303 447.826216 
L 224.44133 446.890417 
L 223.859694 446.464072 
L 221.991085 445.134826 
L 221.904937 445.073027 
L 220.122476 443.784393 
L 219.365439 443.255638 
L 218.253867 442.469686 
L 216.737741 441.438248 
L 216.385258 441.19414 
L 214.516649 439.916514 
L 214.075792 439.620858 
L 212.64804 438.641716 
L 211.368088 437.803468 
L 210.779431 437.40616 
L 208.910822 436.188717 
L 208.592764 435.986078 
L 207.042213 434.962048 
L 205.771005 434.168688 
L 205.173604 433.7787 
L 203.304996 432.616564 
L 202.860493 432.351298 
L 201.436387 431.458065 
L 199.861605 430.533908 
L 199.567778 430.351059 
L 197.699169 429.253258 
L 196.72769 428.716518 
L 195.83056 428.1903 
L 193.961951 427.171238 
L 193.431381 426.899128 
L 192.093342 426.172736 
L 190.224733 425.227254 
L 189.914699 425.081738 
L 188.356124 424.312886 
L 186.487515 423.449435 
L 186.047697 423.264348 
L 184.618906 422.639275 
L 182.750297 421.891647 
L 181.529075 421.446959 
L 180.881688 421.205462 
L 179.013079 420.644049 
L 177.144471 420.179517 
L 175.275862 419.847862 
L 173.407253 419.699643 
L 171.538644 419.732139 
L 169.670035 419.854307 
L 167.801426 419.973854 
L 165.932817 420.085856 
L 164.064208 420.279966 
L 162.195599 420.747229 
L 160.902558 421.446959 
L 160.32699 421.933682 
L 159.27784 423.264348 
L 158.458381 424.486819 
L 158.077564 425.081738 
L 156.701698 426.899128 
L 156.589772 427.040322 
L 155.48238 428.716518 
L 154.823077 430.533908 
L 154.798659 432.351298 
L 155.239786 434.168688 
L 155.985456 435.986078 
L 156.589772 437.079991 
L 156.985866 437.803468 
L 158.183354 439.620858 
L 158.458381 439.984666 
L 159.541634 441.438248 
L 160.32699 442.407265 
L 161.000005 443.255638 
L 162.195599 444.6725 
L 162.52337 445.073027 
L 164.064208 446.872414 
L 164.079005 446.890417 
L 165.629343 448.707807 
L 165.932817 449.054707 
L 167.159903 450.525197 
L 167.801426 451.273936 
L 168.666496 452.342587 
L 169.670035 453.542323 
L 170.154533 454.159977 
L 171.538644 455.850417 
L 171.635662 455.977367 
L 173.092528 457.794757 
L 173.407253 458.163318 
L 174.560683 459.612147 
L 175.275862 460.445104 
L 176.064473 461.429537 
L 177.144471 462.671593 
L 177.612714 463.246927 
L 179.013079 464.828604 
L 179.209408 465.064316 
L 180.851568 466.881706 
L 180.881688 466.912795 
L 182.523434 468.699096 
L 182.750297 468.929365 
L 184.244033 470.516486 
L 184.618906 470.89132 
L 186.007214 472.333876 
L 186.487515 472.807972 
L 187.80664 474.151266 
L 188.356124 474.687806 
L 189.636556 475.968656 
L 190.224733 476.537735 
L 191.492409 477.786046 
L 192.093342 478.362723 
L 193.371326 479.603436 
L 193.961951 480.165651 
L 195.272459 481.420826 
L 195.83056 481.947352 
L 197.197135 483.238216 
L 197.699169 483.706832 
L 199.148797 485.055606 
L 199.567778 485.441655 
L 201.132717 486.872995 
L 201.436387 487.148469 
L 203.155514 488.690385 
L 203.304996 488.823559 
L 205.173604 490.464585 
L 205.223707 490.507775 
L 207.042213 492.072008 
L 207.343763 492.325165 
L 208.910822 493.640149 
L 209.526134 494.142555 
L 210.779431 495.168278 
L 211.776832 495.959945 
L 212.64804 496.65592 
L 214.100832 497.777335 
L 214.516649 498.102159 
L 216.385258 499.508742 
L 216.50294 499.594725 
L 218.253867 500.890924 
L 218.986036 501.412115 
L 220.122476 502.237311 
L 221.55057 503.229505 
L 221.991085 503.544153 
L 223.859694 504.823673 
L 224.196376 505.046895 
L 225.728303 506.090314 
L 226.924264 506.864284 
L 227.596912 507.315464 
L 229.465521 508.506406 
L 229.749441 508.681674 
L 231.334129 509.695379 
L 232.67931 510.499064 
L 233.202738 510.826366 
L 235.071347 511.931341 
L 235.762784 512.316454 
L 236.939956 513.003927 
L 238.808565 514.001296 
L 239.071228 514.133844 
L 240.677174 514.986193 
L 242.545783 515.871856 
L 242.72606 515.951234 
L 244.414392 516.735824 
L 246.283001 517.501458 
L 247.005394 517.768624 
L 248.15161 518.217407 
L 250.020219 518.859446 
L 251.888828 519.429144 
L 252.458497 519.586014 
L 253.757437 519.961274 
L 255.626046 520.452968 
L 257.494654 520.921209 
L 259.363263 521.389246 
L 259.417752 521.403404 
L 261.231872 521.887137 
L 263.100481 522.400493 
L 264.96909 522.934505 
L 265.944279 523.220794 
L 266.837699 523.489496 
L 268.706308 524.0353 
L 270.574917 524.557577 
L 272.443526 525.038184 
z
M 243.973821 506.864284 
L 242.545783 506.424528 
L 240.677174 505.75181 
L 238.910256 505.046895 
L 238.808565 505.004653 
L 236.939956 504.096302 
L 235.219691 503.229505 
L 235.071347 503.152554 
L 233.202738 502.085206 
L 232.059385 501.412115 
L 231.334129 500.97583 
L 229.465521 499.81423 
L 229.127057 499.594725 
L 227.596912 498.58516 
L 226.386432 497.777335 
L 225.728303 497.330864 
L 223.859694 496.04731 
L 223.735603 495.959945 
L 221.991085 494.715098 
L 221.195513 494.142555 
L 220.122476 493.360835 
L 218.713715 492.325165 
L 218.253867 491.9833 
L 216.385258 490.578368 
L 216.293185 490.507775 
L 214.516649 489.134694 
L 213.950551 488.690385 
L 212.64804 487.659871 
L 211.669444 486.872995 
L 210.779431 486.15064 
L 209.451794 485.055606 
L 208.910822 484.603878 
L 207.299678 483.238216 
L 207.042213 483.0162 
L 205.215704 481.420826 
L 205.173604 481.383165 
L 203.304996 479.691813 
L 203.208816 479.603436 
L 201.436387 477.936959 
L 201.277492 477.786046 
L 199.567778 476.109663 
L 199.42472 475.968656 
L 197.699169 474.194844 
L 197.65677 474.151266 
L 195.991239 472.333876 
L 195.83056 472.14381 
L 194.435908 470.516486 
L 193.961951 469.91056 
L 192.995835 468.699096 
L 192.093342 467.44457 
L 191.678033 466.881706 
L 190.514978 465.064316 
L 190.224733 464.510232 
L 189.538311 463.246927 
L 188.746226 461.429537 
L 188.356124 460.151388 
L 188.184074 459.612147 
L 187.870414 457.794757 
L 187.736846 455.977367 
L 187.694063 454.159977 
L 187.66407 452.342587 
L 187.644833 450.525197 
L 187.716675 448.707807 
L 188.059995 446.890417 
L 188.356124 446.247626 
L 189.290032 445.073027 
L 190.224733 444.400651 
L 192.093342 443.523866 
L 192.680728 443.255638 
L 193.961951 442.555734 
L 195.503046 441.438248 
L 195.83056 441.216784 
L 197.699169 440.37201 
L 199.567778 440.274406 
L 201.436387 440.63914 
L 203.304996 441.225092 
L 203.790654 441.438248 
L 205.173604 442.066286 
L 207.042213 442.981295 
L 207.530703 443.255638 
L 208.910822 444.050602 
L 210.66198 445.073027 
L 210.779431 445.143767 
L 212.64804 446.371481 
L 213.419591 446.890417 
L 214.516649 447.646102 
L 216.041815 448.707807 
L 216.385258 448.953586 
L 218.253867 450.322256 
L 218.523651 450.525197 
L 220.122476 451.754925 
L 220.88326 452.342587 
L 221.991085 453.219636 
L 223.178458 454.159977 
L 223.859694 454.713905 
L 225.418552 455.977367 
L 225.728303 456.235476 
L 227.596912 457.783393 
L 227.610537 457.794757 
L 229.465521 459.377425 
L 229.742424 459.612147 
L 231.334129 460.994138 
L 231.840182 461.429537 
L 233.202738 462.63227 
L 233.907162 463.246927 
L 235.071347 464.291512 
L 235.944753 465.064316 
L 236.939956 465.972848 
L 237.952037 466.881706 
L 238.808565 467.679048 
L 239.925435 468.699096 
L 240.677174 469.415341 
L 241.858433 470.516486 
L 242.545783 471.190366 
L 243.741425 472.333876 
L 244.414392 473.017544 
L 245.561774 474.151266 
L 246.283001 474.917062 
L 247.304144 475.968656 
L 248.15161 476.918719 
L 248.951236 477.786046 
L 250.020219 479.0659 
L 250.485053 479.603436 
L 251.888828 481.420826 
L 253.104529 483.238216 
L 253.757437 484.368354 
L 254.16593 485.055606 
L 255.02394 486.872995 
L 255.626046 488.449025 
L 255.718907 488.690385 
L 256.207304 490.507775 
L 256.592993 492.325165 
L 256.936673 494.142555 
L 257.291311 495.959945 
L 257.494654 496.941987 
L 257.659606 497.777335 
L 258.017775 499.594725 
L 258.327136 501.412115 
L 258.476551 503.229505 
L 258.247644 505.046895 
L 257.494654 506.352872 
L 256.998225 506.864284 
L 255.626046 507.492103 
L 253.757437 507.877299 
L 251.888828 507.976623 
L 250.020219 507.902634 
L 248.15161 507.703998 
L 246.283001 507.398633 
L 244.414392 506.99274 
z
" style="fill:#2a8fd7;fill-opacity:0.5;"/>
   </g>
   <g id="PathCollection_3">
    <path clip-path="url(#pefa20f6e79)" d="M 244.414392 506.99274 
L 246.283001 507.398633 
L 248.15161 507.703998 
L 250.020219 507.902634 
L 251.888828 507.976623 
L 253.757437 507.877299 
L 255.626046 507.492103 
L 256.998225 506.864284 
L 257.494654 506.352872 
L 258.247644 505.046895 
L 258.476551 503.229505 
L 258.327136 501.412115 
L 258.017775 499.594725 
L 257.659606 497.777335 
L 257.494654 496.941987 
L 257.291311 495.959945 
L 256.936673 494.142555 
L 256.592993 492.325165 
L 256.207304 490.507775 
L 255.718907 488.690385 
L 255.626046 488.449025 
L 255.02394 486.872995 
L 254.16593 485.055606 
L 253.757437 484.368354 
L 253.104529 483.238216 
L 251.888828 481.420826 
L 250.485053 479.603436 
L 250.020219 479.0659 
L 248.951236 477.786046 
L 248.15161 476.918719 
L 247.304144 475.968656 
L 246.283001 474.917062 
L 245.561774 474.151266 
L 244.414392 473.017544 
L 243.741425 472.333876 
L 242.545783 471.190366 
L 241.858433 470.516486 
L 240.677174 469.415341 
L 239.925435 468.699096 
L 238.808565 467.679048 
L 237.952037 466.881706 
L 236.939956 465.972848 
L 235.944753 465.064316 
L 235.071347 464.291512 
L 233.907162 463.246927 
L 233.202738 462.63227 
L 231.840182 461.429537 
L 231.334129 460.994138 
L 229.742424 459.612147 
L 229.465521 459.377425 
L 227.610537 457.794757 
L 227.596912 457.783393 
L 225.728303 456.235476 
L 225.418552 455.977367 
L 223.859694 454.713905 
L 223.178458 454.159977 
L 221.991085 453.219636 
L 220.88326 452.342587 
L 220.122476 451.754925 
L 218.523651 450.525197 
L 218.253867 450.322256 
L 216.385258 448.953586 
L 216.041815 448.707807 
L 214.516649 447.646102 
L 213.419591 446.890417 
L 212.64804 446.371481 
L 210.779431 445.143767 
L 210.66198 445.073027 
L 208.910822 444.050602 
L 207.530703 443.255638 
L 207.042213 442.981295 
L 205.173604 442.066286 
L 203.790654 441.438248 
L 203.304996 441.225092 
L 201.436387 440.63914 
L 199.567778 440.274406 
L 197.699169 440.37201 
L 195.83056 441.216784 
L 195.503046 441.438248 
L 193.961951 442.555734 
L 192.680728 443.255638 
L 192.093342 443.523866 
L 190.224733 444.400651 
L 189.290032 445.073027 
L 188.356124 446.247626 
L 188.059995 446.890417 
L 187.716675 448.707807 
L 187.644833 450.525197 
L 187.66407 452.342587 
L 187.694063 454.159977 
L 187.736846 455.977367 
L 187.870414 457.794757 
L 188.184074 459.612147 
L 188.356124 460.151388 
L 188.746226 461.429537 
L 189.538311 463.246927 
L 190.224733 464.510232 
L 190.514978 465.064316 
L 191.678033 466.881706 
L 192.093342 467.44457 
L 192.995835 468.699096 
L 193.961951 469.91056 
L 194.435908 470.516486 
L 195.83056 472.14381 
L 195.991239 472.333876 
L 197.65677 474.151266 
L 197.699169 474.194844 
L 199.42472 475.968656 
L 199.567778 476.109663 
L 201.277492 477.786046 
L 201.436387 477.936959 
L 203.208816 479.603436 
L 203.304996 479.691813 
L 205.173604 481.383165 
L 205.215704 481.420826 
L 207.042213 483.0162 
L 207.299678 483.238216 
L 208.910822 484.603878 
L 209.451794 485.055606 
L 210.779431 486.15064 
L 211.669444 486.872995 
L 212.64804 487.659871 
L 213.950551 488.690385 
L 214.516649 489.134694 
L 216.293185 490.507775 
L 216.385258 490.578368 
L 218.253867 491.9833 
L 218.713715 492.325165 
L 220.122476 493.360835 
L 221.195513 494.142555 
L 221.991085 494.715098 
L 223.735603 495.959945 
L 223.859694 496.04731 
L 225.728303 497.330864 
L 226.386432 497.777335 
L 227.596912 498.58516 
L 229.127057 499.594725 
L 229.465521 499.81423 
L 231.334129 500.97583 
L 232.059385 501.412115 
L 233.202738 502.085206 
L 235.071347 503.152554 
L 235.219691 503.229505 
L 236.939956 504.096302 
L 238.808565 505.004653 
L 238.910256 505.046895 
L 240.677174 505.75181 
L 242.545783 506.424528 
L 243.973821 506.864284 
z
M 231.747035 494.142555 
L 231.334129 493.998837 
L 229.465521 493.136671 
L 227.813444 492.325165 
L 227.596912 492.21675 
L 225.728303 491.130539 
L 224.693295 490.507775 
L 223.859694 489.995813 
L 221.991085 488.80998 
L 221.815376 488.690385 
L 220.122476 487.511474 
L 219.212642 486.872995 
L 218.253867 486.179618 
L 216.707758 485.055606 
L 216.385258 484.811672 
L 214.516649 483.374239 
L 214.344059 483.238216 
L 212.64804 481.843469 
L 212.134082 481.420826 
L 210.779431 480.244693 
L 210.038823 479.603436 
L 208.910822 478.558065 
L 208.07328 477.786046 
L 207.042213 476.752899 
L 206.253387 475.968656 
L 205.173604 474.781254 
L 204.594964 474.151266 
L 203.304996 472.567645 
L 203.112312 472.333876 
L 201.878021 470.516486 
L 201.436387 469.707166 
L 200.884606 468.699096 
L 200.162248 466.881706 
L 199.698027 465.064316 
L 199.567778 463.883445 
L 199.500608 463.246927 
L 199.550617 461.429537 
L 199.567778 461.334074 
L 200.077563 459.612147 
L 201.436387 458.182425 
L 203.304996 457.794757 
L 205.173604 457.952726 
L 207.042213 458.269113 
L 208.910822 458.601667 
L 210.779431 458.840494 
L 212.64804 458.75905 
L 214.516649 457.971817 
L 214.960773 457.794757 
L 216.385258 457.478819 
L 217.735855 457.794757 
L 218.253867 457.924113 
L 220.122476 458.995003 
L 221.109958 459.612147 
L 221.991085 460.194611 
L 223.791603 461.429537 
L 223.859694 461.47871 
L 225.728303 463.01394 
L 226.008994 463.246927 
L 227.596912 464.632789 
L 228.09254 465.064316 
L 229.465521 466.324651 
L 230.074136 466.881706 
L 231.334129 468.104426 
L 231.948724 468.699096 
L 233.202738 469.997167 
L 233.705613 470.516486 
L 235.071347 472.044627 
L 235.330161 472.333876 
L 236.749536 474.151266 
L 236.939956 474.454404 
L 237.858622 475.968656 
L 238.782852 477.786046 
L 238.808565 477.86846 
L 239.311729 479.603436 
L 239.714037 481.420826 
L 240.085068 483.238216 
L 240.470945 485.055606 
L 240.677174 486.003956 
L 240.86094 486.872995 
L 241.170642 488.690385 
L 241.297328 490.507775 
L 241.084387 492.325165 
L 240.677174 493.263946 
L 240.017964 494.142555 
L 238.808565 494.880146 
L 236.939956 495.227641 
L 235.071347 495.079334 
L 233.202738 494.638735 
z
" style="fill:#396f9f;fill-opacity:0.5;"/>
   </g>
   <g id="PathCollection_4">
    <path clip-path="url(#pefa20f6e79)" d="M 233.202738 494.638735 
L 235.071347 495.079334 
L 236.939956 495.227641 
L 238.808565 494.880146 
L 240.017964 494.142555 
L 240.677174 493.263946 
L 241.084387 492.325165 
L 241.297328 490.507775 
L 241.170642 488.690385 
L 240.86094 486.872995 
L 240.677174 486.003956 
L 240.470945 485.055606 
L 240.085068 483.238216 
L 239.714037 481.420826 
L 239.311729 479.603436 
L 238.808565 477.86846 
L 238.782852 477.786046 
L 237.858622 475.968656 
L 236.939956 474.454404 
L 236.749536 474.151266 
L 235.330161 472.333876 
L 235.071347 472.044627 
L 233.705613 470.516486 
L 233.202738 469.997167 
L 231.948724 468.699096 
L 231.334129 468.104426 
L 230.074136 466.881706 
L 229.465521 466.324651 
L 228.09254 465.064316 
L 227.596912 464.632789 
L 226.008994 463.246927 
L 225.728303 463.01394 
L 223.859694 461.47871 
L 223.791603 461.429537 
L 221.991085 460.194611 
L 221.109958 459.612147 
L 220.122476 458.995003 
L 218.253867 457.924113 
L 217.735855 457.794757 
L 216.385258 457.478819 
L 214.960773 457.794757 
L 214.516649 457.971817 
L 212.64804 458.75905 
L 210.779431 458.840494 
L 208.910822 458.601667 
L 207.042213 458.269113 
L 205.173604 457.952726 
L 203.304996 457.794757 
L 201.436387 458.182425 
L 200.077563 459.612147 
L 199.567778 461.334074 
L 199.550617 461.429537 
L 199.500608 463.246927 
L 199.567778 463.883445 
L 199.698027 465.064316 
L 200.162248 466.881706 
L 200.884606 468.699096 
L 201.436387 469.707166 
L 201.878021 470.516486 
L 203.112312 472.333876 
L 203.304996 472.567645 
L 204.594964 474.151266 
L 205.173604 474.781254 
L 206.253387 475.968656 
L 207.042213 476.752899 
L 208.07328 477.786046 
L 208.910822 478.558065 
L 210.038823 479.603436 
L 210.779431 480.244693 
L 212.134082 481.420826 
L 212.64804 481.843469 
L 214.344059 483.238216 
L 214.516649 483.374239 
L 216.385258 484.811672 
L 216.707758 485.055606 
L 218.253867 486.179618 
L 219.212642 486.872995 
L 220.122476 487.511474 
L 221.815376 488.690385 
L 221.991085 488.80998 
L 223.859694 489.995813 
L 224.693295 490.507775 
L 225.728303 491.130539 
L 227.596912 492.21675 
L 227.813444 492.325165 
L 229.465521 493.136671 
L 231.334129 493.998837 
L 231.747035 494.142555 
z
" style="fill:#3d5c7c;fill-opacity:0.5;"/>
   </g>
   <g id="matplotlib.axis_3">
    <g id="xtick_6">
     <g id="line2d_8">
      <g>
       <use style="stroke:#000000;stroke-width:0.8;" x="60.212875" xlink:href="#m2795877525" y="618.12"/>
      </g>
     </g>
     <g id="text_2">
      <!-- 3.0 -->
      <g transform="translate(56.541444 641.738114)rotate(-45)scale(0.1 -0.1)">
       <use xlink:href="#DejaVuSans-51"/>
       <use x="63.623047" xlink:href="#DejaVuSans-46"/>
       <use x="95.410156" xlink:href="#DejaVuSans-48"/>
      </g>
     </g>
    </g>
    <g id="xtick_7">
     <g id="line2d_9">
      <g>
       <use style="stroke:#000000;stroke-width:0.8;" x="127.978662" xlink:href="#m2795877525" y="618.12"/>
      </g>
     </g>
     <g id="text_3">
      <!-- 3.2 -->
      <g transform="translate(124.307231 641.738114)rotate(-45)scale(0.1 -0.1)">
       <use xlink:href="#DejaVuSans-51"/>
       <use x="63.623047" xlink:href="#DejaVuSans-46"/>
       <use x="95.410156" xlink:href="#DejaVuSans-50"/>
      </g>
     </g>
    </g>
    <g id="xtick_8">
     <g id="line2d_10">
      <g>
       <use style="stroke:#000000;stroke-width:0.8;" x="195.744449" xlink:href="#m2795877525" y="618.12"/>
      </g>
     </g>
     <g id="text_4">
      <!-- 3.4 -->
      <g transform="translate(192.073018 641.738114)rotate(-45)scale(0.1 -0.1)">
       <use xlink:href="#DejaVuSans-51"/>
       <use x="63.623047" xlink:href="#DejaVuSans-46"/>
       <use x="95.410156" xlink:href="#DejaVuSans-52"/>
      </g>
     </g>
    </g>
    <g id="xtick_9">
     <g id="line2d_11">
      <g>
       <use style="stroke:#000000;stroke-width:0.8;" x="263.510236" xlink:href="#m2795877525" y="618.12"/>
      </g>
     </g>
     <g id="text_5">
      <!-- 3.6 -->
      <g transform="translate(259.838805 641.738114)rotate(-45)scale(0.1 -0.1)">
       <defs>
        <path d="M 33.015625 40.375 
Q 26.375 40.375 22.484375 35.828125 
Q 18.609375 31.296875 18.609375 23.390625 
Q 18.609375 15.53125 22.484375 10.953125 
Q 26.375 6.390625 33.015625 6.390625 
Q 39.65625 6.390625 43.53125 10.953125 
Q 47.40625 15.53125 47.40625 23.390625 
Q 47.40625 31.296875 43.53125 35.828125 
Q 39.65625 40.375 33.015625 40.375 
z
M 52.59375 71.296875 
L 52.59375 62.3125 
Q 48.875 64.0625 45.09375 64.984375 
Q 41.3125 65.921875 37.59375 65.921875 
Q 27.828125 65.921875 22.671875 59.328125 
Q 17.53125 52.734375 16.796875 39.40625 
Q 19.671875 43.65625 24.015625 45.921875 
Q 28.375 48.1875 33.59375 48.1875 
Q 44.578125 48.1875 50.953125 41.515625 
Q 57.328125 34.859375 57.328125 23.390625 
Q 57.328125 12.15625 50.6875 5.359375 
Q 44.046875 -1.421875 33.015625 -1.421875 
Q 20.359375 -1.421875 13.671875 8.265625 
Q 6.984375 17.96875 6.984375 36.375 
Q 6.984375 53.65625 15.1875 63.9375 
Q 23.390625 74.21875 37.203125 74.21875 
Q 40.921875 74.21875 44.703125 73.484375 
Q 48.484375 72.75 52.59375 71.296875 
z
" id="DejaVuSans-54"/>
       </defs>
       <use xlink:href="#DejaVuSans-51"/>
       <use x="63.623047" xlink:href="#DejaVuSans-46"/>
       <use x="95.410156" xlink:href="#DejaVuSans-54"/>
      </g>
     </g>
    </g>
    <g id="xtick_10">
     <g id="line2d_12">
      <g>
       <use style="stroke:#000000;stroke-width:0.8;" x="331.276023" xlink:href="#m2795877525" y="618.12"/>
      </g>
     </g>
     <g id="text_6">
      <!-- 3.8 -->
      <g transform="translate(327.604592 641.738114)rotate(-45)scale(0.1 -0.1)">
       <defs>
        <path d="M 31.78125 34.625 
Q 24.75 34.625 20.71875 30.859375 
Q 16.703125 27.09375 16.703125 20.515625 
Q 16.703125 13.921875 20.71875 10.15625 
Q 24.75 6.390625 31.78125 6.390625 
Q 38.8125 6.390625 42.859375 10.171875 
Q 46.921875 13.96875 46.921875 20.515625 
Q 46.921875 27.09375 42.890625 30.859375 
Q 38.875 34.625 31.78125 34.625 
z
M 21.921875 38.8125 
Q 15.578125 40.375 12.03125 44.71875 
Q 8.5 49.078125 8.5 55.328125 
Q 8.5 64.0625 14.71875 69.140625 
Q 20.953125 74.21875 31.78125 74.21875 
Q 42.671875 74.21875 48.875 69.140625 
Q 55.078125 64.0625 55.078125 55.328125 
Q 55.078125 49.078125 51.53125 44.71875 
Q 48 40.375 41.703125 38.8125 
Q 48.828125 37.15625 52.796875 32.3125 
Q 56.78125 27.484375 56.78125 20.515625 
Q 56.78125 9.90625 50.3125 4.234375 
Q 43.84375 -1.421875 31.78125 -1.421875 
Q 19.734375 -1.421875 13.25 4.234375 
Q 6.78125 9.90625 6.78125 20.515625 
Q 6.78125 27.484375 10.78125 32.3125 
Q 14.796875 37.15625 21.921875 38.8125 
z
M 18.3125 54.390625 
Q 18.3125 48.734375 21.84375 45.5625 
Q 25.390625 42.390625 31.78125 42.390625 
Q 38.140625 42.390625 41.71875 45.5625 
Q 45.3125 48.734375 45.3125 54.390625 
Q 45.3125 60.0625 41.71875 63.234375 
Q 38.140625 66.40625 31.78125 66.40625 
Q 25.390625 66.40625 21.84375 63.234375 
Q 18.3125 60.0625 18.3125 54.390625 
z
" id="DejaVuSans-56"/>
       </defs>
       <use xlink:href="#DejaVuSans-51"/>
       <use x="63.623047" xlink:href="#DejaVuSans-46"/>
       <use x="95.410156" xlink:href="#DejaVuSans-56"/>
      </g>
     </g>
    </g>
    <g id="text_7">
     <!-- m -->
     <g transform="translate(191.89987 654.807113)scale(0.1 -0.1)">
      <use xlink:href="#DejaVuSans-109"/>
     </g>
    </g>
   </g>
   <g id="matplotlib.axis_4">
    <g id="ytick_1">
     <g id="line2d_13">
      <defs>
       <path d="M 0 0 
L -3.5 0 
" id="mb485add2ba" style="stroke:#000000;stroke-width:0.8;"/>
      </defs>
      <g>
       <use style="stroke:#000000;stroke-width:0.8;" x="51.892134" xlink:href="#mb485add2ba" y="616.843898"/>
      </g>
     </g>
     <g id="text_8">
      <!-- 1.5 -->
      <g transform="translate(26.251032 635.588127)rotate(-45)scale(0.1 -0.1)">
       <defs>
        <path d="M 12.40625 8.296875 
L 28.515625 8.296875 
L 28.515625 63.921875 
L 10.984375 60.40625 
L 10.984375 69.390625 
L 28.421875 72.90625 
L 38.28125 72.90625 
L 38.28125 8.296875 
L 54.390625 8.296875 
L 54.390625 0 
L 12.40625 0 
z
" id="DejaVuSans-49"/>
       </defs>
       <use xlink:href="#DejaVuSans-8722"/>
       <use x="83.789062" xlink:href="#DejaVuSans-49"/>
       <use x="147.412109" xlink:href="#DejaVuSans-46"/>
       <use x="179.199219" xlink:href="#DejaVuSans-53"/>
      </g>
     </g>
    </g>
    <g id="ytick_2">
     <g id="line2d_14">
      <g>
       <use style="stroke:#000000;stroke-width:0.8;" x="51.892134" xlink:href="#mb485add2ba" y="530.993754"/>
      </g>
     </g>
     <g id="text_9">
      <!-- 0.0 -->
      <g transform="translate(32.176366 543.812649)rotate(-45)scale(0.1 -0.1)">
       <use xlink:href="#DejaVuSans-48"/>
       <use x="63.623047" xlink:href="#DejaVuSans-46"/>
       <use x="95.410156" xlink:href="#DejaVuSans-48"/>
      </g>
     </g>
    </g>
    <g id="ytick_3">
     <g id="line2d_15">
      <g>
       <use style="stroke:#000000;stroke-width:0.8;" x="51.892134" xlink:href="#mb485add2ba" y="445.14361"/>
      </g>
     </g>
     <g id="text_10">
      <!-- 1.5 -->
      <g transform="translate(32.176366 457.962505)rotate(-45)scale(0.1 -0.1)">
       <use xlink:href="#DejaVuSans-49"/>
       <use x="63.623047" xlink:href="#DejaVuSans-46"/>
       <use x="95.410156" xlink:href="#DejaVuSans-53"/>
      </g>
     </g>
    </g>
    <g id="ytick_4">
     <g id="line2d_16">
      <g>
       <use style="stroke:#000000;stroke-width:0.8;" x="51.892134" xlink:href="#mb485add2ba" y="359.293466"/>
      </g>
     </g>
     <g id="text_11">
      <!-- 3.0 -->
      <g transform="translate(32.176366 372.112361)rotate(-45)scale(0.1 -0.1)">
       <use xlink:href="#DejaVuSans-51"/>
       <use x="63.623047" xlink:href="#DejaVuSans-46"/>
       <use x="95.410156" xlink:href="#DejaVuSans-48"/>
      </g>
     </g>
    </g>
    <g id="text_12">
     <!-- c -->
     <g transform="translate(14.798438 475.99117)rotate(-90)scale(0.1 -0.1)">
      <defs>
       <path d="M 48.78125 52.59375 
L 48.78125 44.1875 
Q 44.96875 46.296875 41.140625 47.34375 
Q 37.3125 48.390625 33.40625 48.390625 
Q 24.65625 48.390625 19.8125 42.84375 
Q 14.984375 37.3125 14.984375 27.296875 
Q 14.984375 17.28125 19.8125 11.734375 
Q 24.65625 6.203125 33.40625 6.203125 
Q 37.3125 6.203125 41.140625 7.25 
Q 44.96875 8.296875 48.78125 10.40625 
L 48.78125 2.09375 
Q 45.015625 0.34375 40.984375 -0.53125 
Q 36.96875 -1.421875 32.421875 -1.421875 
Q 20.0625 -1.421875 12.78125 6.34375 
Q 5.515625 14.109375 5.515625 27.296875 
Q 5.515625 40.671875 12.859375 48.328125 
Q 20.21875 56 33.015625 56 
Q 37.15625 56 41.109375 55.140625 
Q 45.0625 54.296875 48.78125 52.59375 
z
" id="DejaVuSans-99"/>
      </defs>
      <use xlink:href="#DejaVuSans-99"/>
     </g>
    </g>
   </g>
   <g id="LineCollection_1">
    <path clip-path="url(#pefa20f6e79)" d="M 294.866833 556.003488 
L 296.735442 556.270886 
L 298.604051 556.118391 
L 299.105163 555.933812 
L 300.47266 555.174538 
L 302.341269 553.337454 
L 303.127849 552.299032 
L 304.231061 550.481642 
L 304.755434 548.664252 
L 304.943747 546.846863 
L 305.070874 539.577303 
L 305.806986 534.125133 
L 305.703152 532.307743 
L 305.312774 530.490353 
L 304.209878 527.583279 
L 303.098162 525.038184 
L 301.426184 521.403404 
L 299.923134 517.768624 
L 297.692857 512.316454 
L 295.82797 508.681674 
L 292.998224 504.193703 
L 292.381115 503.229505 
L 288.37999 497.777335 
L 281.786571 489.763028 
L 278.049353 485.512813 
L 274.312135 481.418518 
L 251.888828 456.921006 
L 247.317282 452.342587 
L 240.677174 446.127528 
L 233.202738 439.530351 
L 223.859694 431.549041 
L 208.910822 419.467094 
L 203.304996 415.304563 
L 197.699169 411.485587 
L 192.093342 408.049142 
L 186.487515 404.942478 
L 180.881688 402.038529 
L 175.275862 399.360339 
L 171.538644 397.78558 
L 167.801426 396.5265 
L 165.496492 396.0035 
L 162.195599 395.513392 
L 156.589772 394.868433 
L 152.639075 394.18611 
L 143.50951 392.012713 
L 139.772292 391.41308 
L 137.903683 391.312728 
L 136.035074 391.373293 
L 134.166465 391.578638 
L 132.297856 391.898943 
L 130.307655 392.36872 
L 128.560638 393.008776 
L 126.692029 394.281961 
L 125.749436 396.0035 
L 125.444969 397.82089 
L 125.538493 401.455669 
L 125.662465 405.090449 
L 125.519808 406.907839 
L 125.115354 408.725229 
L 124.823421 409.471045 
L 124.259608 410.542619 
L 122.954812 412.72066 
L 122.420938 414.177399 
L 122.373442 415.994789 
L 122.954812 418.419075 
L 123.360888 419.629569 
L 124.991579 423.264348 
L 126.937396 426.899128 
L 129.138078 430.533908 
L 131.639312 434.168688 
L 134.470579 437.803468 
L 137.903683 441.790517 
L 142.599223 446.890417 
L 154.865292 459.612147 
L 162.195599 466.912475 
L 167.963133 472.333876 
L 174.094917 477.786046 
L 179.013079 481.948157 
L 190.224733 491.000026 
L 197.699169 497.044639 
L 202.918364 501.412115 
L 209.001488 506.864284 
L 214.560331 512.316454 
L 221.991085 519.878716 
L 225.728303 523.349876 
L 229.997187 526.855574 
L 233.202738 529.177994 
L 236.939956 531.589906 
L 241.41616 534.125133 
L 245.020703 535.942523 
L 248.15161 537.37226 
L 251.888828 538.835515 
L 254.252106 539.577303 
L 255.626046 539.943866 
L 257.494654 540.304476 
L 261.231872 540.645455 
L 264.96909 540.91772 
L 267.30913 541.394693 
L 268.706308 541.811903 
L 272.013913 543.212083 
L 272.443526 543.413565 
L 276.180744 545.538785 
L 281.786571 549.169267 
L 286.753137 552.299032 
L 289.261006 553.710943 
L 291.129615 554.625973 
L 292.998224 555.396824 
L 294.866833 556.003488 
L 294.866833 556.003488 
" style="fill:none;stroke:#1f77b4;stroke-opacity:0.5;stroke-width:1.5;"/>
   </g>
   <g id="LineCollection_2">
    <path clip-path="url(#pefa20f6e79)" d="M 274.312135 525.392405 
L 276.180744 525.571525 
L 278.049353 525.447603 
L 279.254017 525.038184 
L 279.917962 524.642532 
L 280.987246 523.220794 
L 281.385281 521.403404 
L 281.267076 519.586014 
L 280.868126 517.768624 
L 279.917962 514.933241 
L 278.885413 512.316454 
L 276.721784 506.864284 
L 275.545942 503.229505 
L 274.014934 497.777335 
L 273.383135 495.959945 
L 272.443526 493.780183 
L 271.718844 492.325165 
L 270.574917 490.353135 
L 268.171475 486.872995 
L 265.221505 483.238216 
L 261.231872 478.921767 
L 257.494654 475.192151 
L 251.888828 469.909193 
L 242.456395 461.429537 
L 236.103574 455.977367 
L 231.334129 452.121419 
L 224.44133 446.890417 
L 218.253867 442.469686 
L 207.042213 434.962048 
L 197.699169 429.253258 
L 190.224733 425.227254 
L 184.618906 422.639275 
L 180.881688 421.205462 
L 177.144471 420.179517 
L 175.275862 419.847862 
L 173.407253 419.699643 
L 169.670035 419.854307 
L 164.064208 420.279966 
L 162.195599 420.747229 
L 160.902558 421.446959 
L 160.32699 421.933682 
L 159.27784 423.264348 
L 158.077564 425.081738 
L 156.589772 427.040322 
L 155.48238 428.716518 
L 154.823077 430.533908 
L 154.798659 432.351298 
L 155.239786 434.168688 
L 155.985456 435.986078 
L 156.985866 437.803468 
L 158.458381 439.984666 
L 161.000005 443.255638 
L 171.635662 455.977367 
L 176.064473 461.429537 
L 182.523434 468.699096 
L 193.961951 480.165651 
L 199.567778 485.441655 
L 205.223707 490.507775 
L 210.779431 495.168278 
L 216.50294 499.594725 
L 221.991085 503.544153 
L 227.596912 507.315464 
L 233.202738 510.826366 
L 236.939956 513.003927 
L 242.545783 515.871856 
L 247.005394 517.768624 
L 250.020219 518.859446 
L 255.626046 520.452968 
L 263.100481 522.400493 
L 272.443526 525.038184 
L 274.312135 525.392405 
L 274.312135 525.392405 
" style="fill:none;stroke:#1f77b4;stroke-opacity:0.5;stroke-width:1.5;"/>
   </g>
   <g id="LineCollection_3">
    <path clip-path="url(#pefa20f6e79)" d="M 244.414392 506.99274 
L 248.15161 507.703998 
L 250.020219 507.902634 
L 251.888828 507.976623 
L 253.757437 507.877299 
L 255.626046 507.492103 
L 256.998225 506.864284 
L 257.494654 506.352872 
L 258.247644 505.046895 
L 258.476551 503.229505 
L 258.327136 501.412115 
L 257.291311 495.959945 
L 256.207304 490.507775 
L 255.626046 488.449025 
L 255.02394 486.872995 
L 253.757437 484.368354 
L 253.104529 483.238216 
L 251.888828 481.420826 
L 248.951236 477.786046 
L 244.414392 473.017544 
L 241.858433 470.516486 
L 233.907162 463.246927 
L 225.418552 455.977367 
L 218.523651 450.525197 
L 214.516649 447.646102 
L 210.66198 445.073027 
L 207.042213 442.981295 
L 203.304996 441.225092 
L 201.436387 440.63914 
L 199.567778 440.274406 
L 197.699169 440.37201 
L 195.503046 441.438248 
L 193.961951 442.555734 
L 192.093342 443.523866 
L 190.224733 444.400651 
L 189.290032 445.073027 
L 188.356124 446.247626 
L 188.059995 446.890417 
L 187.716675 448.707807 
L 187.66407 452.342587 
L 187.736846 455.977367 
L 187.870414 457.794757 
L 188.356124 460.151388 
L 188.746226 461.429537 
L 189.538311 463.246927 
L 190.514978 465.064316 
L 192.093342 467.44457 
L 194.435908 470.516486 
L 197.699169 474.194844 
L 201.436387 477.936959 
L 205.215704 481.420826 
L 210.779431 486.15064 
L 216.385258 490.578368 
L 221.991085 494.715098 
L 227.596912 498.58516 
L 232.059385 501.412115 
L 235.219691 503.229505 
L 238.910256 505.046895 
L 242.545783 506.424528 
L 244.414392 506.99274 
L 244.414392 506.99274 
" style="fill:none;stroke:#1f77b4;stroke-opacity:0.5;stroke-width:1.5;"/>
   </g>
   <g id="LineCollection_4">
    <path clip-path="url(#pefa20f6e79)" d="M 233.202738 494.638735 
L 235.071347 495.079334 
L 236.939956 495.227641 
L 238.808565 494.880146 
L 240.017964 494.142555 
L 240.677174 493.263946 
L 241.084387 492.325165 
L 241.297328 490.507775 
L 241.170642 488.690385 
L 240.86094 486.872995 
L 240.677174 486.003956 
L 240.470945 485.055606 
L 240.085068 483.238216 
L 239.714037 481.420826 
L 239.311729 479.603436 
L 238.808565 477.86846 
L 238.782852 477.786046 
L 237.858622 475.968656 
L 236.939956 474.454404 
L 236.749536 474.151266 
L 235.330161 472.333876 
L 235.071347 472.044627 
L 233.705613 470.516486 
L 233.202738 469.997167 
L 231.948724 468.699096 
L 231.334129 468.104426 
L 230.074136 466.881706 
L 229.465521 466.324651 
L 228.09254 465.064316 
L 227.596912 464.632789 
L 226.008994 463.246927 
L 225.728303 463.01394 
L 223.859694 461.47871 
L 223.791603 461.429537 
L 221.991085 460.194611 
L 221.109958 459.612147 
L 220.122476 458.995003 
L 218.253867 457.924113 
L 217.735855 457.794757 
L 216.385258 457.478819 
L 214.960773 457.794757 
L 214.516649 457.971817 
L 212.64804 458.75905 
L 210.779431 458.840494 
L 208.910822 458.601667 
L 207.042213 458.269113 
L 205.173604 457.952726 
L 203.304996 457.794757 
L 201.436387 458.182425 
L 200.077563 459.612147 
L 199.567778 461.334074 
L 199.550617 461.429537 
L 199.500608 463.246927 
L 199.567778 463.883445 
L 199.698027 465.064316 
L 200.162248 466.881706 
L 200.884606 468.699096 
L 201.436387 469.707166 
L 201.878021 470.516486 
L 203.112312 472.333876 
L 203.304996 472.567645 
L 204.594964 474.151266 
L 205.173604 474.781254 
L 206.253387 475.968656 
L 207.042213 476.752899 
L 208.07328 477.786046 
L 208.910822 478.558065 
L 210.038823 479.603436 
L 210.779431 480.244693 
L 212.134082 481.420826 
L 212.64804 481.843469 
L 214.344059 483.238216 
L 214.516649 483.374239 
L 216.385258 484.811672 
L 216.707758 485.055606 
L 218.253867 486.179618 
L 219.212642 486.872995 
L 220.122476 487.511474 
L 221.815376 488.690385 
L 221.991085 488.80998 
L 223.859694 489.995813 
L 224.693295 490.507775 
L 225.728303 491.130539 
L 227.596912 492.21675 
L 227.813444 492.325165 
L 229.465521 493.136671 
L 231.334129 493.998837 
L 231.747035 494.142555 
L 233.202738 494.638735 
" style="fill:none;stroke:#1f77b4;stroke-opacity:0.5;stroke-width:1.5;"/>
   </g>
   <g id="LineCollection_5"/>
   <g id="line2d_17">
    <path clip-path="url(#pefa20f6e79)" d="M 229.627342 618.12 
L 229.627342 328.363902 
" style="fill:none;stroke:#000000;stroke-linecap:square;"/>
   </g>
   <g id="line2d_18">
    <path clip-path="url(#pefa20f6e79)" d="M 51.892134 462.313639 
L 341.648232 462.313639 
" style="fill:none;stroke:#000000;stroke-linecap:square;"/>
   </g>
   <g id="patch_8">
    <path d="M 51.892134 618.12 
L 51.892134 328.363902 
" style="fill:none;stroke:#000000;stroke-linecap:square;stroke-linejoin:miter;stroke-width:0.8;"/>
   </g>
   <g id="patch_9">
    <path d="M 341.648232 618.12 
L 341.648232 328.363902 
" style="fill:none;stroke:#000000;stroke-linecap:square;stroke-linejoin:miter;stroke-width:0.8;"/>
   </g>
   <g id="patch_10">
    <path d="M 51.892134 618.12 
L 341.648232 618.12 
" style="fill:none;stroke:#000000;stroke-linecap:square;stroke-linejoin:miter;stroke-width:0.8;"/>
   </g>
   <g id="patch_11">
    <path d="M 51.892134 328.363902 
L 341.648232 328.363902 
" style="fill:none;stroke:#000000;stroke-linecap:square;stroke-linejoin:miter;stroke-width:0.8;"/>
   </g>
  </g>
  <g id="axes_4">
   <g id="patch_12">
    <path d="M 356.136037 618.12 
L 645.892134 618.12 
L 645.892134 328.363902 
L 356.136037 328.363902 
z
" style="fill:#ffffff;"/>
   </g>
   <g id="PolyCollection_2">
    <defs>
     <path d="M 327.575622 -51.904503 
L 327.575622 -51.892134 
L 329.318716 -51.892134 
L 331.061809 -51.892134 
L 332.804903 -51.892134 
L 334.547997 -51.892134 
L 336.291091 -51.892134 
L 338.034185 -51.892134 
L 339.777279 -51.892134 
L 341.520373 -51.892134 
L 343.263467 -51.892134 
L 345.006561 -51.892134 
L 346.749655 -51.892134 
L 348.492749 -51.892134 
L 350.235842 -51.892134 
L 351.978936 -51.892134 
L 353.72203 -51.892134 
L 355.465124 -51.892134 
L 357.208218 -51.892134 
L 358.951312 -51.892134 
L 360.694406 -51.892134 
L 362.4375 -51.892134 
L 364.180594 -51.892134 
L 365.923688 -51.892134 
L 367.666782 -51.892134 
L 369.409875 -51.892134 
L 371.152969 -51.892134 
L 372.896063 -51.892134 
L 374.639157 -51.892134 
L 376.382251 -51.892134 
L 378.125345 -51.892134 
L 379.868439 -51.892134 
L 381.611533 -51.892134 
L 383.354627 -51.892134 
L 385.097721 -51.892134 
L 386.840815 -51.892134 
L 388.583908 -51.892134 
L 390.327002 -51.892134 
L 392.070096 -51.892134 
L 393.81319 -51.892134 
L 395.556284 -51.892134 
L 397.299378 -51.892134 
L 399.042472 -51.892134 
L 400.785566 -51.892134 
L 402.52866 -51.892134 
L 404.271754 -51.892134 
L 406.014848 -51.892134 
L 407.757941 -51.892134 
L 409.501035 -51.892134 
L 411.244129 -51.892134 
L 412.987223 -51.892134 
L 414.730317 -51.892134 
L 416.473411 -51.892134 
L 418.216505 -51.892134 
L 419.959599 -51.892134 
L 421.702693 -51.892134 
L 423.445787 -51.892134 
L 425.188881 -51.892134 
L 426.931974 -51.892134 
L 428.675068 -51.892134 
L 430.418162 -51.892134 
L 432.161256 -51.892134 
L 433.90435 -51.892134 
L 435.647444 -51.892134 
L 437.390538 -51.892134 
L 439.133632 -51.892134 
L 440.876726 -51.892134 
L 442.61982 -51.892134 
L 444.362914 -51.892134 
L 446.106007 -51.892134 
L 447.849101 -51.892134 
L 449.592195 -51.892134 
L 451.335289 -51.892134 
L 453.078383 -51.892134 
L 454.821477 -51.892134 
L 456.564571 -51.892134 
L 458.307665 -51.892134 
L 460.050759 -51.892134 
L 461.793853 -51.892134 
L 463.536947 -51.892134 
L 465.28004 -51.892134 
L 467.023134 -51.892134 
L 468.766228 -51.892134 
L 470.509322 -51.892134 
L 472.252416 -51.892134 
L 473.99551 -51.892134 
L 475.738604 -51.892134 
L 477.481698 -51.892134 
L 479.224792 -51.892134 
L 480.967886 -51.892134 
L 482.71098 -51.892134 
L 484.454073 -51.892134 
L 486.197167 -51.892134 
L 487.940261 -51.892134 
L 489.683355 -51.892134 
L 491.426449 -51.892134 
L 493.169543 -51.892134 
L 494.912637 -51.892134 
L 496.655731 -51.892134 
L 498.398825 -51.892134 
L 500.141919 -51.892134 
L 501.885013 -51.892134 
L 503.628106 -51.892134 
L 505.3712 -51.892134 
L 507.114294 -51.892134 
L 508.857388 -51.892134 
L 510.600482 -51.892134 
L 512.343576 -51.892134 
L 514.08667 -51.892134 
L 515.829764 -51.892134 
L 517.572858 -51.892134 
L 519.315952 -51.892134 
L 521.059046 -51.892134 
L 522.802139 -51.892134 
L 524.545233 -51.892134 
L 526.288327 -51.892134 
L 528.031421 -51.892134 
L 529.774515 -51.892134 
L 531.517609 -51.892134 
L 533.260703 -51.892134 
L 535.003797 -51.892134 
L 536.746891 -51.892134 
L 538.489985 -51.892134 
L 540.233079 -51.892134 
L 541.976172 -51.892134 
L 543.719266 -51.892134 
L 545.46236 -51.892134 
L 547.205454 -51.892134 
L 548.948548 -51.892134 
L 550.691642 -51.892134 
L 552.434736 -51.892134 
L 554.17783 -51.892134 
L 555.920924 -51.892134 
L 557.664018 -51.892134 
L 559.407112 -51.892134 
L 561.150205 -51.892134 
L 562.893299 -51.892134 
L 564.636393 -51.892134 
L 566.379487 -51.892134 
L 568.122581 -51.892134 
L 569.865675 -51.892134 
L 571.608769 -51.892134 
L 573.351863 -51.892134 
L 575.094957 -51.892134 
L 576.838051 -51.892134 
L 578.581145 -51.892134 
L 580.324238 -51.892134 
L 582.067332 -51.892134 
L 583.810426 -51.892134 
L 585.55352 -51.892134 
L 587.296614 -51.892134 
L 589.039708 -51.892134 
L 590.782802 -51.892134 
L 592.525896 -51.892134 
L 594.26899 -51.892134 
L 596.012084 -51.892134 
L 597.755178 -51.892134 
L 599.498271 -51.892134 
L 601.241365 -51.892134 
L 602.984459 -51.892134 
L 604.727553 -51.892134 
L 606.470647 -51.892134 
L 608.213741 -51.892134 
L 609.956835 -51.892134 
L 611.699929 -51.892134 
L 613.443023 -51.892134 
L 615.186117 -51.892134 
L 616.929211 -51.892134 
L 618.672304 -51.892134 
L 620.415398 -51.892134 
L 622.158492 -51.892134 
L 623.901586 -51.892134 
L 625.64468 -51.892134 
L 627.387774 -51.892134 
L 629.130868 -51.892134 
L 630.873962 -51.892134 
L 632.617056 -51.892134 
L 634.36015 -51.892134 
L 636.103244 -51.892134 
L 637.846337 -51.892134 
L 639.589431 -51.892134 
L 641.332525 -51.892134 
L 643.075619 -51.892134 
L 644.818713 -51.892134 
L 646.561807 -51.892134 
L 648.304901 -51.892134 
L 650.047995 -51.892134 
L 651.791089 -51.892134 
L 653.534183 -51.892134 
L 655.277277 -51.892134 
L 657.02037 -51.892134 
L 658.763464 -51.892134 
L 660.506558 -51.892134 
L 662.249652 -51.892134 
L 663.992746 -51.892134 
L 665.73584 -51.892134 
L 667.478934 -51.892134 
L 669.222028 -51.892134 
L 670.965122 -51.892134 
L 672.708216 -51.892134 
L 674.45131 -51.892134 
L 674.45131 -51.904503 
L 674.45131 -51.904503 
L 672.708216 -51.913205 
L 670.965122 -51.926845 
L 669.222028 -51.947427 
L 667.478934 -51.977309 
L 665.73584 -52.019013 
L 663.992746 -52.0749 
L 662.249652 -52.146719 
L 660.506558 -52.235065 
L 658.763464 -52.338837 
L 657.02037 -52.454831 
L 655.277277 -52.577597 
L 653.534183 -52.699679 
L 651.791089 -52.812279 
L 650.047995 -52.906306 
L 648.304901 -52.973671 
L 646.561807 -53.008578 
L 644.818713 -53.008592 
L 643.075619 -52.97523 
L 641.332525 -52.913977 
L 639.589431 -52.833703 
L 637.846337 -52.745603 
L 636.103244 -52.661862 
L 634.36015 -52.594277 
L 632.617056 -52.55305 
L 630.873962 -52.545909 
L 629.130868 -52.577659 
L 627.387774 -52.650194 
L 625.64468 -52.762951 
L 623.901586 -52.913757 
L 622.158492 -53.099979 
L 620.415398 -53.319807 
L 618.672304 -53.573491 
L 616.929211 -53.864302 
L 615.186117 -54.199011 
L 613.443023 -54.587735 
L 611.699929 -55.04317 
L 609.956835 -55.579312 
L 608.213741 -56.209961 
L 606.470647 -56.947343 
L 604.727553 -57.801206 
L 602.984459 -58.778655 
L 601.241365 -59.884831 
L 599.498271 -61.124409 
L 597.755178 -62.50369 
L 596.012084 -64.032949 
L 594.26899 -65.728621 
L 592.525896 -67.614871 
L 590.782802 -69.724073 
L 589.039708 -72.095821 
L 587.296614 -74.774216 
L 585.55352 -77.803384 
L 583.810426 -81.221532 
L 582.067332 -85.054217 
L 580.324238 -89.30786 
L 578.581145 -93.964784 
L 576.838051 -98.98106 
L 575.094957 -104.288142 
L 573.351863 -109.798661 
L 571.608769 -115.415969 
L 569.865675 -121.04619 
L 568.122581 -126.610903 
L 566.379487 -132.058276 
L 564.636393 -137.370628 
L 562.893299 -142.566966 
L 561.150205 -147.699922 
L 559.407112 -152.847537 
L 557.664018 -158.101253 
L 555.920924 -163.55212 
L 554.17783 -169.277434 
L 552.434736 -175.329776 
L 550.691642 -181.729813 
L 548.948548 -188.463412 
L 547.205454 -195.482885 
L 545.46236 -202.711714 
L 543.719266 -210.051949 
L 541.976172 -217.393623 
L 540.233079 -224.625606 
L 538.489985 -231.64731 
L 536.746891 -238.380248 
L 535.003797 -244.777928 
L 533.260703 -250.832081 
L 531.517609 -256.573301 
L 529.774515 -262.064873 
L 528.031421 -267.389986 
L 526.288327 -272.634251 
L 524.545233 -277.866921 
L 522.802139 -283.124905 
L 521.059046 -288.403294 
L 519.315952 -293.654631 
L 517.572858 -298.797013 
L 515.829764 -303.728879 
L 514.08667 -308.346693 
L 512.343576 -312.561096 
L 510.600482 -316.307636 
L 508.857388 -319.549763 
L 507.114294 -322.273833 
L 505.3712 -324.47799 
L 503.628106 -326.158283 
L 501.885013 -327.296065 
L 500.141919 -327.850322 
L 498.398825 -327.757334 
L 496.655731 -326.938271 
L 494.912637 -325.313381 
L 493.169543 -322.819787 
L 491.426449 -319.428937 
L 489.683355 -315.159657 
L 487.940261 -310.083548 
L 486.197167 -304.321027 
L 484.454073 -298.028324 
L 482.71098 -291.377674 
L 480.967886 -284.534539 
L 479.224792 -277.636336 
L 477.481698 -270.776869 
L 475.738604 -263.999382 
L 473.99551 -257.299208 
L 472.252416 -250.634854 
L 470.509322 -243.94461 
L 468.766228 -237.164765 
L 467.023134 -230.24549 
L 465.28004 -223.161404 
L 463.536947 -215.915348 
L 461.793853 -208.535623 
L 460.050759 -201.068388 
L 458.307665 -193.567785 
L 456.564571 -186.08648 
L 454.821477 -178.668803 
L 453.078383 -171.347703 
L 451.335289 -164.145608 
L 449.592195 -157.07829 
L 447.849101 -150.16019 
L 446.106007 -143.409519 
L 444.362914 -136.851676 
L 442.61982 -130.520166 
L 440.876726 -124.454864 
L 439.133632 -118.698106 
L 437.390538 -113.289508 
L 435.647444 -108.260564 
L 433.90435 -103.630026 
L 432.161256 -99.40088 
L 430.418162 -95.559457 
L 428.675068 -92.076937 
L 426.931974 -88.913098 
L 425.188881 -86.021833 
L 423.445787 -83.357536 
L 421.702693 -80.881231 
L 419.959599 -78.565239 
L 418.216505 -76.395422 
L 416.473411 -74.370541 
L 414.730317 -72.498901 
L 412.987223 -70.793107 
L 411.244129 -69.264148 
L 409.501035 -67.91615 
L 407.757941 -66.742879 
L 406.014848 -65.726605 
L 404.271754 -64.839347 
L 402.52866 -64.046052 
L 400.785566 -63.308908 
L 399.042472 -62.591959 
L 397.299378 -61.865215 
L 395.556284 -61.107739 
L 393.81319 -60.309363 
L 392.070096 -59.470967 
L 390.327002 -58.60341 
L 388.583908 -57.725357 
L 386.840815 -56.860363 
L 385.097721 -56.033651 
L 383.354627 -55.269035 
L 381.611533 -54.586389 
L 379.868439 -53.999951 
L 378.125345 -53.517582 
L 376.382251 -53.140894 
L 374.639157 -52.866029 
L 372.896063 -52.684794 
L 371.152969 -52.585837 
L 369.409875 -52.555667 
L 367.666782 -52.579441 
L 365.923688 -52.641553 
L 364.180594 -52.726168 
L 362.4375 -52.817834 
L 360.694406 -52.902253 
L 358.951312 -52.967189 
L 357.208218 -53.003405 
L 355.465124 -53.005406 
L 353.72203 -52.971822 
L 351.978936 -52.905276 
L 350.235842 -52.811729 
L 348.492749 -52.699397 
L 346.749655 -52.577458 
L 345.006561 -52.454765 
L 343.263467 -52.338807 
L 341.520373 -52.235052 
L 339.777279 -52.146714 
L 338.034185 -52.074897 
L 336.291091 -52.019012 
L 334.547997 -51.977309 
L 332.804903 -51.947427 
L 331.061809 -51.926844 
L 329.318716 -51.913205 
L 327.575622 -51.904503 
z
" id="me53993ec03"/>
    </defs>
    <g clip-path="url(#p6e7b41b973)">
     <use style="fill:#1f77b4;fill-opacity:0.5;" x="0" xlink:href="#me53993ec03" y="670.012134"/>
    </g>
   </g>
   <g id="matplotlib.axis_5">
    <g id="xtick_11">
     <g id="line2d_19">
      <g>
       <use style="stroke:#000000;stroke-width:0.8;" x="357.412139" xlink:href="#m2795877525" y="618.12"/>
      </g>
     </g>
     <g id="text_13">
      <!-- 1.5 -->
      <g transform="translate(350.778041 647.663448)rotate(-45)scale(0.1 -0.1)">
       <use xlink:href="#DejaVuSans-8722"/>
       <use x="83.789062" xlink:href="#DejaVuSans-49"/>
       <use x="147.412109" xlink:href="#DejaVuSans-46"/>
       <use x="179.199219" xlink:href="#DejaVuSans-53"/>
      </g>
     </g>
    </g>
    <g id="xtick_12">
     <g id="line2d_20">
      <g>
       <use style="stroke:#000000;stroke-width:0.8;" x="443.262283" xlink:href="#m2795877525" y="618.12"/>
      </g>
     </g>
     <g id="text_14">
      <!-- 0.0 -->
      <g transform="translate(439.590852 641.738114)rotate(-45)scale(0.1 -0.1)">
       <use xlink:href="#DejaVuSans-48"/>
       <use x="63.623047" xlink:href="#DejaVuSans-46"/>
       <use x="95.410156" xlink:href="#DejaVuSans-48"/>
      </g>
     </g>
    </g>
    <g id="xtick_13">
     <g id="line2d_21">
      <g>
       <use style="stroke:#000000;stroke-width:0.8;" x="529.112427" xlink:href="#m2795877525" y="618.12"/>
      </g>
     </g>
     <g id="text_15">
      <!-- 1.5 -->
      <g transform="translate(525.440996 641.738114)rotate(-45)scale(0.1 -0.1)">
       <use xlink:href="#DejaVuSans-49"/>
       <use x="63.623047" xlink:href="#DejaVuSans-46"/>
       <use x="95.410156" xlink:href="#DejaVuSans-53"/>
      </g>
     </g>
    </g>
    <g id="xtick_14">
     <g id="line2d_22">
      <g>
       <use style="stroke:#000000;stroke-width:0.8;" x="614.962571" xlink:href="#m2795877525" y="618.12"/>
      </g>
     </g>
     <g id="text_16">
      <!-- 3.0 -->
      <g transform="translate(611.29114 641.738114)rotate(-45)scale(0.1 -0.1)">
       <use xlink:href="#DejaVuSans-51"/>
       <use x="63.623047" xlink:href="#DejaVuSans-46"/>
       <use x="95.410156" xlink:href="#DejaVuSans-48"/>
      </g>
     </g>
    </g>
    <g id="text_17">
     <!-- c -->
     <g transform="translate(498.264867 660.732447)scale(0.1 -0.1)">
      <use xlink:href="#DejaVuSans-99"/>
     </g>
    </g>
   </g>
   <g id="matplotlib.axis_6"/>
   <g id="line2d_23">
    <path clip-path="url(#p6e7b41b973)" d="M 327.575622 618.107631 
L 336.291091 617.993123 
L 343.263467 617.673327 
L 353.72203 617.040312 
L 358.951312 617.044945 
L 371.152969 617.426297 
L 374.639157 617.146105 
L 378.125345 616.494552 
L 381.611533 615.425746 
L 385.097721 613.978483 
L 390.327002 611.408724 
L 395.556284 608.904395 
L 406.014848 604.285529 
L 407.757941 603.269255 
L 409.501035 602.095985 
L 411.244129 600.747986 
L 412.987223 599.219027 
L 414.730317 597.513233 
L 418.216505 593.616712 
L 421.702693 589.130903 
L 425.188881 583.990301 
L 426.931974 581.099036 
L 428.675068 577.935197 
L 430.418162 574.452677 
L 432.161256 570.611254 
L 433.90435 566.382108 
L 435.647444 561.75157 
L 437.390538 556.722627 
L 440.876726 545.55727 
L 444.362914 533.160458 
L 447.849101 519.851944 
L 453.078383 498.664432 
L 460.050759 468.943747 
L 465.28004 446.85073 
L 468.766228 432.847369 
L 484.454073 371.983811 
L 486.197167 365.691107 
L 487.940261 359.928586 
L 489.683355 354.852477 
L 491.426449 350.583197 
L 493.169543 347.192347 
L 494.912637 344.698753 
L 496.655731 343.073863 
L 498.398825 342.2548 
L 500.141919 342.161812 
L 501.885013 342.716069 
L 503.628106 343.853851 
L 505.3712 345.534144 
L 507.114294 347.738301 
L 508.857388 350.462372 
L 510.600482 353.704498 
L 512.343576 357.451038 
L 514.08667 361.665441 
L 517.572858 371.215121 
L 522.802139 386.88723 
L 531.517609 413.438833 
L 535.003797 425.234207 
L 538.489985 438.364825 
L 541.976172 452.618511 
L 548.948548 481.548722 
L 552.434736 494.682358 
L 555.920924 506.460014 
L 559.407112 517.164598 
L 566.379487 537.953858 
L 571.608769 554.596165 
L 575.094957 565.723992 
L 578.581145 576.04735 
L 580.324238 580.704274 
L 582.067332 584.957917 
L 583.810426 588.790603 
L 585.55352 592.208751 
L 587.296614 595.237918 
L 589.039708 597.916313 
L 590.782802 600.288061 
L 592.525896 602.397263 
L 594.26899 604.283513 
L 596.012084 605.979186 
L 597.755178 607.508444 
L 601.241365 610.127303 
L 604.727553 612.210928 
L 608.213741 613.802173 
L 611.699929 614.968964 
L 615.186117 615.813124 
L 618.672304 616.438644 
L 623.901586 617.098377 
L 627.387774 617.36194 
L 630.873962 617.466226 
L 636.103244 617.350272 
L 644.818713 617.003543 
L 650.047995 617.105828 
L 654.092134 617.351533 
L 654.092134 617.351533 
" style="fill:none;stroke:#1f77b4;stroke-linecap:square;stroke-width:1.5;"/>
   </g>
   <g id="line2d_24">
    <path clip-path="url(#p6e7b41b973)" d="M 511.942398 618.12 
L 511.942398 328.363902 
" style="fill:none;stroke:#000000;stroke-linecap:square;"/>
   </g>
   <g id="patch_13">
    <path d="M 356.136037 618.12 
L 356.136037 328.363902 
" style="fill:none;stroke:#000000;stroke-linecap:square;stroke-linejoin:miter;stroke-width:0.8;"/>
   </g>
   <g id="patch_14">
    <path d="M 645.892134 618.12 
L 645.892134 328.363902 
" style="fill:none;stroke:#000000;stroke-linecap:square;stroke-linejoin:miter;stroke-width:0.8;"/>
   </g>
   <g id="patch_15">
    <path d="M 356.136037 618.12 
L 645.892134 618.12 
" style="fill:none;stroke:#000000;stroke-linecap:square;stroke-linejoin:miter;stroke-width:0.8;"/>
   </g>
   <g id="patch_16">
    <path d="M 356.136037 328.363902 
L 645.892134 328.363902 
" style="fill:none;stroke:#000000;stroke-linecap:square;stroke-linejoin:miter;stroke-width:0.8;"/>
   </g>
   <g id="text_18">
    <!-- c = ${1.03}_{-1.30}^{+1.24}$ -->
    <g transform="translate(462.374085 322.363902)scale(0.12 -0.12)">
     <use transform="translate(0 0.765625)" xlink:href="#DejaVuSans-99"/>
     <use transform="translate(54.980469 0.765625)" xlink:href="#DejaVuSans-32"/>
     <use transform="translate(86.767578 0.765625)" xlink:href="#DejaVuSans-61"/>
     <use transform="translate(170.556641 0.765625)" xlink:href="#DejaVuSans-32"/>
     <use transform="translate(202.34375 0.765625)" xlink:href="#DejaVuSans-49"/>
     <use transform="translate(265.966797 0.765625)" xlink:href="#DejaVuSans-46"/>
     <use transform="translate(297.753906 0.765625)" xlink:href="#DejaVuSans-48"/>
     <use transform="translate(361.376953 0.765625)" xlink:href="#DejaVuSans-51"/>
     <use transform="translate(425.957031 39.046875)scale(0.7)" xlink:href="#DejaVuSans-43"/>
     <use transform="translate(484.609375 39.046875)scale(0.7)" xlink:href="#DejaVuSans-49"/>
     <use transform="translate(529.145508 39.046875)scale(0.7)" xlink:href="#DejaVuSans-46"/>
     <use transform="translate(547.546484 39.046875)scale(0.7)" xlink:href="#DejaVuSans-50"/>
     <use transform="translate(592.082617 39.046875)scale(0.7)" xlink:href="#DejaVuSans-52"/>
     <use transform="translate(425.957031 -26.578125)scale(0.7)" xlink:href="#DejaVuSans-8722"/>
     <use transform="translate(484.609375 -26.578125)scale(0.7)" xlink:href="#DejaVuSans-49"/>
     <use transform="translate(529.145508 -26.578125)scale(0.7)" xlink:href="#DejaVuSans-46"/>
     <use transform="translate(551.396484 -26.578125)scale(0.7)" xlink:href="#DejaVuSans-51"/>
     <use transform="translate(595.932617 -26.578125)scale(0.7)" xlink:href="#DejaVuSans-48"/>
    </g>
   </g>
  </g>
 </g>
 <defs>
  <clipPath id="pb1d042ba7a">
   <rect height="289.756098" width="289.756098" x="51.892134" y="24.12"/>
  </clipPath>
  <clipPath id="pefa20f6e79">
   <rect height="289.756098" width="289.756098" x="51.892134" y="328.363902"/>
  </clipPath>
  <clipPath id="p6e7b41b973">
   <rect height="289.756098" width="289.756098" x="356.136037" y="328.363902"/>
  </clipPath>
 </defs>
</svg>
