<?xml version="1.0" encoding="utf-8" standalone="no"?>
<!DOCTYPE svg PUBLIC "-//W3C//DTD SVG 1.1//EN"
  "http://www.w3.org/Graphics/SVG/1.1/DTD/svg11.dtd">
<!-- Created with matplotlib (https://matplotlib.org/) -->
<svg height="370.91625pt" version="1.1" viewBox="0 0 550.003125 370.91625" width="550.003125pt" xmlns="http://www.w3.org/2000/svg" xmlns:xlink="http://www.w3.org/1999/xlink">
 <metadata>
  <rdf:RDF xmlns:cc="http://creativecommons.org/ns#" xmlns:dc="http://purl.org/dc/elements/1.1/" xmlns:rdf="http://www.w3.org/1999/02/22-rdf-syntax-ns#">
   <cc:Work>
    <dc:type rdf:resource="http://purl.org/dc/dcmitype/StillImage"/>
    <dc:date>2020-09-24T10:04:58.954564</dc:date>
    <dc:format>image/svg+xml</dc:format>
    <dc:creator>
     <cc:Agent>
      <dc:title>Matplotlib v3.3.1, https://matplotlib.org/</dc:title>
     </cc:Agent>
    </dc:creator>
   </cc:Work>
  </rdf:RDF>
 </metadata>
 <defs>
  <style type="text/css">*{stroke-linecap:butt;stroke-linejoin:round;}</style>
 </defs>
 <g id="figure_1">
  <g id="patch_1">
   <path d="M 0 370.91625 
L 550.003125 370.91625 
L 550.003125 0 
L 0 0 
z
" style="fill:none;"/>
  </g>
  <g id="axes_1">
   <g id="patch_2">
    <path d="M 40.603125 333.36 
L 542.803125 333.36 
L 542.803125 7.2 
L 40.603125 7.2 
z
" style="fill:#ffffff;"/>
   </g>
   <g id="matplotlib.axis_1">
    <g id="xtick_1">
     <g id="line2d_1">
      <defs>
       <path d="M 0 0 
L 0 3.5 
" id="m2cceda9f62" style="stroke:#000000;stroke-width:0.8;"/>
      </defs>
      <g>
       <use style="stroke:#000000;stroke-width:0.8;" x="54.850587" xlink:href="#m2cceda9f62" y="333.36"/>
      </g>
     </g>
     <g id="text_1">
      <!-- 0 -->
      <g transform="translate(51.669337 347.958438)scale(0.1 -0.1)">
       <defs>
        <path d="M 31.78125 66.40625 
Q 24.171875 66.40625 20.328125 58.90625 
Q 16.5 51.421875 16.5 36.375 
Q 16.5 21.390625 20.328125 13.890625 
Q 24.171875 6.390625 31.78125 6.390625 
Q 39.453125 6.390625 43.28125 13.890625 
Q 47.125 21.390625 47.125 36.375 
Q 47.125 51.421875 43.28125 58.90625 
Q 39.453125 66.40625 31.78125 66.40625 
z
M 31.78125 74.21875 
Q 44.046875 74.21875 50.515625 64.515625 
Q 56.984375 54.828125 56.984375 36.375 
Q 56.984375 17.96875 50.515625 8.265625 
Q 44.046875 -1.421875 31.78125 -1.421875 
Q 19.53125 -1.421875 13.0625 8.265625 
Q 6.59375 17.96875 6.59375 36.375 
Q 6.59375 54.828125 13.0625 64.515625 
Q 19.53125 74.21875 31.78125 74.21875 
z
" id="DejaVuSans-48"/>
       </defs>
       <use xlink:href="#DejaVuSans-48"/>
      </g>
     </g>
    </g>
    <g id="xtick_2">
     <g id="line2d_2">
      <g>
       <use style="stroke:#000000;stroke-width:0.8;" x="148.110668" xlink:href="#m2cceda9f62" y="333.36"/>
      </g>
     </g>
     <g id="text_2">
      <!-- 2 -->
      <g transform="translate(144.929418 347.958438)scale(0.1 -0.1)">
       <defs>
        <path d="M 19.1875 8.296875 
L 53.609375 8.296875 
L 53.609375 0 
L 7.328125 0 
L 7.328125 8.296875 
Q 12.9375 14.109375 22.625 23.890625 
Q 32.328125 33.6875 34.8125 36.53125 
Q 39.546875 41.84375 41.421875 45.53125 
Q 43.3125 49.21875 43.3125 52.78125 
Q 43.3125 58.59375 39.234375 62.25 
Q 35.15625 65.921875 28.609375 65.921875 
Q 23.96875 65.921875 18.8125 64.3125 
Q 13.671875 62.703125 7.8125 59.421875 
L 7.8125 69.390625 
Q 13.765625 71.78125 18.9375 73 
Q 24.125 74.21875 28.421875 74.21875 
Q 39.75 74.21875 46.484375 68.546875 
Q 53.21875 62.890625 53.21875 53.421875 
Q 53.21875 48.921875 51.53125 44.890625 
Q 49.859375 40.875 45.40625 35.40625 
Q 44.1875 33.984375 37.640625 27.21875 
Q 31.109375 20.453125 19.1875 8.296875 
z
" id="DejaVuSans-50"/>
       </defs>
       <use xlink:href="#DejaVuSans-50"/>
      </g>
     </g>
    </g>
    <g id="xtick_3">
     <g id="line2d_3">
      <g>
       <use style="stroke:#000000;stroke-width:0.8;" x="241.370748" xlink:href="#m2cceda9f62" y="333.36"/>
      </g>
     </g>
     <g id="text_3">
      <!-- 4 -->
      <g transform="translate(238.189498 347.958438)scale(0.1 -0.1)">
       <defs>
        <path d="M 37.796875 64.3125 
L 12.890625 25.390625 
L 37.796875 25.390625 
z
M 35.203125 72.90625 
L 47.609375 72.90625 
L 47.609375 25.390625 
L 58.015625 25.390625 
L 58.015625 17.1875 
L 47.609375 17.1875 
L 47.609375 0 
L 37.796875 0 
L 37.796875 17.1875 
L 4.890625 17.1875 
L 4.890625 26.703125 
z
" id="DejaVuSans-52"/>
       </defs>
       <use xlink:href="#DejaVuSans-52"/>
      </g>
     </g>
    </g>
    <g id="xtick_4">
     <g id="line2d_4">
      <g>
       <use style="stroke:#000000;stroke-width:0.8;" x="334.630828" xlink:href="#m2cceda9f62" y="333.36"/>
      </g>
     </g>
     <g id="text_4">
      <!-- 6 -->
      <g transform="translate(331.449578 347.958438)scale(0.1 -0.1)">
       <defs>
        <path d="M 33.015625 40.375 
Q 26.375 40.375 22.484375 35.828125 
Q 18.609375 31.296875 18.609375 23.390625 
Q 18.609375 15.53125 22.484375 10.953125 
Q 26.375 6.390625 33.015625 6.390625 
Q 39.65625 6.390625 43.53125 10.953125 
Q 47.40625 15.53125 47.40625 23.390625 
Q 47.40625 31.296875 43.53125 35.828125 
Q 39.65625 40.375 33.015625 40.375 
z
M 52.59375 71.296875 
L 52.59375 62.3125 
Q 48.875 64.0625 45.09375 64.984375 
Q 41.3125 65.921875 37.59375 65.921875 
Q 27.828125 65.921875 22.671875 59.328125 
Q 17.53125 52.734375 16.796875 39.40625 
Q 19.671875 43.65625 24.015625 45.921875 
Q 28.375 48.1875 33.59375 48.1875 
Q 44.578125 48.1875 50.953125 41.515625 
Q 57.328125 34.859375 57.328125 23.390625 
Q 57.328125 12.15625 50.6875 5.359375 
Q 44.046875 -1.421875 33.015625 -1.421875 
Q 20.359375 -1.421875 13.671875 8.265625 
Q 6.984375 17.96875 6.984375 36.375 
Q 6.984375 53.65625 15.1875 63.9375 
Q 23.390625 74.21875 37.203125 74.21875 
Q 40.921875 74.21875 44.703125 73.484375 
Q 48.484375 72.75 52.59375 71.296875 
z
" id="DejaVuSans-54"/>
       </defs>
       <use xlink:href="#DejaVuSans-54"/>
      </g>
     </g>
    </g>
    <g id="xtick_5">
     <g id="line2d_5">
      <g>
       <use style="stroke:#000000;stroke-width:0.8;" x="427.890909" xlink:href="#m2cceda9f62" y="333.36"/>
      </g>
     </g>
     <g id="text_5">
      <!-- 8 -->
      <g transform="translate(424.709659 347.958438)scale(0.1 -0.1)">
       <defs>
        <path d="M 31.78125 34.625 
Q 24.75 34.625 20.71875 30.859375 
Q 16.703125 27.09375 16.703125 20.515625 
Q 16.703125 13.921875 20.71875 10.15625 
Q 24.75 6.390625 31.78125 6.390625 
Q 38.8125 6.390625 42.859375 10.171875 
Q 46.921875 13.96875 46.921875 20.515625 
Q 46.921875 27.09375 42.890625 30.859375 
Q 38.875 34.625 31.78125 34.625 
z
M 21.921875 38.8125 
Q 15.578125 40.375 12.03125 44.71875 
Q 8.5 49.078125 8.5 55.328125 
Q 8.5 64.0625 14.71875 69.140625 
Q 20.953125 74.21875 31.78125 74.21875 
Q 42.671875 74.21875 48.875 69.140625 
Q 55.078125 64.0625 55.078125 55.328125 
Q 55.078125 49.078125 51.53125 44.71875 
Q 48 40.375 41.703125 38.8125 
Q 48.828125 37.15625 52.796875 32.3125 
Q 56.78125 27.484375 56.78125 20.515625 
Q 56.78125 9.90625 50.3125 4.234375 
Q 43.84375 -1.421875 31.78125 -1.421875 
Q 19.734375 -1.421875 13.25 4.234375 
Q 6.78125 9.90625 6.78125 20.515625 
Q 6.78125 27.484375 10.78125 32.3125 
Q 14.796875 37.15625 21.921875 38.8125 
z
M 18.3125 54.390625 
Q 18.3125 48.734375 21.84375 45.5625 
Q 25.390625 42.390625 31.78125 42.390625 
Q 38.140625 42.390625 41.71875 45.5625 
Q 45.3125 48.734375 45.3125 54.390625 
Q 45.3125 60.0625 41.71875 63.234375 
Q 38.140625 66.40625 31.78125 66.40625 
Q 25.390625 66.40625 21.84375 63.234375 
Q 18.3125 60.0625 18.3125 54.390625 
z
" id="DejaVuSans-56"/>
       </defs>
       <use xlink:href="#DejaVuSans-56"/>
      </g>
     </g>
    </g>
    <g id="xtick_6">
     <g id="line2d_6">
      <g>
       <use style="stroke:#000000;stroke-width:0.8;" x="521.150989" xlink:href="#m2cceda9f62" y="333.36"/>
      </g>
     </g>
     <g id="text_6">
      <!-- 10 -->
      <g transform="translate(514.788489 347.958438)scale(0.1 -0.1)">
       <defs>
        <path d="M 12.40625 8.296875 
L 28.515625 8.296875 
L 28.515625 63.921875 
L 10.984375 60.40625 
L 10.984375 69.390625 
L 28.421875 72.90625 
L 38.28125 72.90625 
L 38.28125 8.296875 
L 54.390625 8.296875 
L 54.390625 0 
L 12.40625 0 
z
" id="DejaVuSans-49"/>
       </defs>
       <use xlink:href="#DejaVuSans-49"/>
       <use x="63.623047" xlink:href="#DejaVuSans-48"/>
      </g>
     </g>
    </g>
    <g id="text_7">
     <!-- $x$ -->
     <g transform="translate(288.703125 361.636562)scale(0.1 -0.1)">
      <defs>
       <path d="M 60.015625 54.6875 
L 34.90625 27.875 
L 50.296875 0 
L 39.984375 0 
L 28.421875 21.6875 
L 8.296875 0 
L -2.59375 0 
L 24.3125 28.8125 
L 10.015625 54.6875 
L 20.3125 54.6875 
L 30.8125 34.90625 
L 49.125 54.6875 
z
" id="DejaVuSans-Oblique-120"/>
      </defs>
      <use transform="translate(0 0.3125)" xlink:href="#DejaVuSans-Oblique-120"/>
     </g>
    </g>
   </g>
   <g id="matplotlib.axis_2">
    <g id="ytick_1">
     <g id="line2d_7">
      <defs>
       <path d="M 0 0 
L -3.5 0 
" id="m7cd0338b42" style="stroke:#000000;stroke-width:0.8;"/>
      </defs>
      <g>
       <use style="stroke:#000000;stroke-width:0.8;" x="40.603125" xlink:href="#m7cd0338b42" y="281.938656"/>
      </g>
     </g>
     <g id="text_8">
      <!-- 0 -->
      <g transform="translate(27.240625 285.737874)scale(0.1 -0.1)">
       <use xlink:href="#DejaVuSans-48"/>
      </g>
     </g>
    </g>
    <g id="ytick_2">
     <g id="line2d_8">
      <g>
       <use style="stroke:#000000;stroke-width:0.8;" x="40.603125" xlink:href="#m7cd0338b42" y="215.82902"/>
      </g>
     </g>
     <g id="text_9">
      <!-- 10 -->
      <g transform="translate(20.878125 219.628239)scale(0.1 -0.1)">
       <use xlink:href="#DejaVuSans-49"/>
       <use x="63.623047" xlink:href="#DejaVuSans-48"/>
      </g>
     </g>
    </g>
    <g id="ytick_3">
     <g id="line2d_9">
      <g>
       <use style="stroke:#000000;stroke-width:0.8;" x="40.603125" xlink:href="#m7cd0338b42" y="149.719384"/>
      </g>
     </g>
     <g id="text_10">
      <!-- 20 -->
      <g transform="translate(20.878125 153.518603)scale(0.1 -0.1)">
       <use xlink:href="#DejaVuSans-50"/>
       <use x="63.623047" xlink:href="#DejaVuSans-48"/>
      </g>
     </g>
    </g>
    <g id="ytick_4">
     <g id="line2d_10">
      <g>
       <use style="stroke:#000000;stroke-width:0.8;" x="40.603125" xlink:href="#m7cd0338b42" y="83.609748"/>
      </g>
     </g>
     <g id="text_11">
      <!-- 30 -->
      <g transform="translate(20.878125 87.408967)scale(0.1 -0.1)">
       <defs>
        <path d="M 40.578125 39.3125 
Q 47.65625 37.796875 51.625 33 
Q 55.609375 28.21875 55.609375 21.1875 
Q 55.609375 10.40625 48.1875 4.484375 
Q 40.765625 -1.421875 27.09375 -1.421875 
Q 22.515625 -1.421875 17.65625 -0.515625 
Q 12.796875 0.390625 7.625 2.203125 
L 7.625 11.71875 
Q 11.71875 9.328125 16.59375 8.109375 
Q 21.484375 6.890625 26.8125 6.890625 
Q 36.078125 6.890625 40.9375 10.546875 
Q 45.796875 14.203125 45.796875 21.1875 
Q 45.796875 27.640625 41.28125 31.265625 
Q 36.765625 34.90625 28.71875 34.90625 
L 20.21875 34.90625 
L 20.21875 43.015625 
L 29.109375 43.015625 
Q 36.375 43.015625 40.234375 45.921875 
Q 44.09375 48.828125 44.09375 54.296875 
Q 44.09375 59.90625 40.109375 62.90625 
Q 36.140625 65.921875 28.71875 65.921875 
Q 24.65625 65.921875 20.015625 65.03125 
Q 15.375 64.15625 9.8125 62.3125 
L 9.8125 71.09375 
Q 15.4375 72.65625 20.34375 73.4375 
Q 25.25 74.21875 29.59375 74.21875 
Q 40.828125 74.21875 47.359375 69.109375 
Q 53.90625 64.015625 53.90625 55.328125 
Q 53.90625 49.265625 50.4375 45.09375 
Q 46.96875 40.921875 40.578125 39.3125 
z
" id="DejaVuSans-51"/>
       </defs>
       <use xlink:href="#DejaVuSans-51"/>
       <use x="63.623047" xlink:href="#DejaVuSans-48"/>
      </g>
     </g>
    </g>
    <g id="ytick_5">
     <g id="line2d_11">
      <g>
       <use style="stroke:#000000;stroke-width:0.8;" x="40.603125" xlink:href="#m7cd0338b42" y="17.500113"/>
      </g>
     </g>
     <g id="text_12">
      <!-- 40 -->
      <g transform="translate(20.878125 21.299331)scale(0.1 -0.1)">
       <use xlink:href="#DejaVuSans-52"/>
       <use x="63.623047" xlink:href="#DejaVuSans-48"/>
      </g>
     </g>
    </g>
    <g id="text_13">
     <!-- $y$ -->
     <g transform="translate(14.778125 173.28)rotate(-90)scale(0.1 -0.1)">
      <defs>
       <path d="M 24.8125 -5.078125 
Q 18.5625 -15.578125 14.625 -18.1875 
Q 10.6875 -20.796875 4.59375 -20.796875 
L -2.484375 -20.796875 
L -0.984375 -13.28125 
L 4.203125 -13.28125 
Q 7.953125 -13.28125 10.59375 -11.234375 
Q 13.234375 -9.1875 16.5 -3.21875 
L 19.28125 2 
L 7.171875 54.6875 
L 16.703125 54.6875 
L 25.78125 12.796875 
L 50.875 54.6875 
L 60.296875 54.6875 
z
" id="DejaVuSans-Oblique-121"/>
      </defs>
      <use transform="translate(0 0.3125)" xlink:href="#DejaVuSans-Oblique-121"/>
     </g>
    </g>
   </g>
   <g id="LineCollection_1">
    <path clip-path="url(#p6d15ffc69b)" d="M 63.430398 318.534545 
L 63.430398 278.868764 
" style="fill:none;stroke:#1f77b4;stroke-width:1.5;"/>
    <path clip-path="url(#p6d15ffc69b)" d="M 70.258818 269.62431 
L 70.258818 229.958528 
" style="fill:none;stroke:#1f77b4;stroke-width:1.5;"/>
    <path clip-path="url(#p6d15ffc69b)" d="M 75.408229 295.7211 
L 75.408229 256.055318 
" style="fill:none;stroke:#1f77b4;stroke-width:1.5;"/>
    <path clip-path="url(#p6d15ffc69b)" d="M 77.429102 302.801521 
L 77.429102 263.135739 
" style="fill:none;stroke:#1f77b4;stroke-width:1.5;"/>
    <path clip-path="url(#p6d15ffc69b)" d="M 88.695138 270.386477 
L 88.695138 230.720696 
" style="fill:none;stroke:#1f77b4;stroke-width:1.5;"/>
    <path clip-path="url(#p6d15ffc69b)" d="M 88.972592 299.898438 
L 88.972592 260.232656 
" style="fill:none;stroke:#1f77b4;stroke-width:1.5;"/>
    <path clip-path="url(#p6d15ffc69b)" d="M 90.604233 291.279237 
L 90.604233 251.613456 
" style="fill:none;stroke:#1f77b4;stroke-width:1.5;"/>
    <path clip-path="url(#p6d15ffc69b)" d="M 92.5642 257.496875 
L 92.5642 217.831093 
" style="fill:none;stroke:#1f77b4;stroke-width:1.5;"/>
    <path clip-path="url(#p6d15ffc69b)" d="M 97.17328 280.098695 
L 97.17328 240.432914 
" style="fill:none;stroke:#1f77b4;stroke-width:1.5;"/>
    <path clip-path="url(#p6d15ffc69b)" d="M 112.909619 301.887871 
L 112.909619 262.222089 
" style="fill:none;stroke:#1f77b4;stroke-width:1.5;"/>
    <path clip-path="url(#p6d15ffc69b)" d="M 125.303377 226.293053 
L 125.303377 186.627271 
" style="fill:none;stroke:#1f77b4;stroke-width:1.5;"/>
    <path clip-path="url(#p6d15ffc69b)" d="M 128.412593 268.588971 
L 128.412593 228.92319 
" style="fill:none;stroke:#1f77b4;stroke-width:1.5;"/>
    <path clip-path="url(#p6d15ffc69b)" d="M 130.660171 251.201106 
L 130.660171 211.535325 
" style="fill:none;stroke:#1f77b4;stroke-width:1.5;"/>
    <path clip-path="url(#p6d15ffc69b)" d="M 131.856422 251.256906 
L 131.856422 211.591125 
" style="fill:none;stroke:#1f77b4;stroke-width:1.5;"/>
    <path clip-path="url(#p6d15ffc69b)" d="M 140.05084 220.68685 
L 140.05084 181.021069 
" style="fill:none;stroke:#1f77b4;stroke-width:1.5;"/>
    <path clip-path="url(#p6d15ffc69b)" d="M 143.522094 258.366957 
L 143.522094 218.701176 
" style="fill:none;stroke:#1f77b4;stroke-width:1.5;"/>
    <path clip-path="url(#p6d15ffc69b)" d="M 146.916999 229.254072 
L 146.916999 189.58829 
" style="fill:none;stroke:#1f77b4;stroke-width:1.5;"/>
    <path clip-path="url(#p6d15ffc69b)" d="M 152.797597 272.429174 
L 152.797597 232.763392 
" style="fill:none;stroke:#1f77b4;stroke-width:1.5;"/>
    <path clip-path="url(#p6d15ffc69b)" d="M 154.921895 243.284714 
L 154.921895 203.618933 
" style="fill:none;stroke:#1f77b4;stroke-width:1.5;"/>
    <path clip-path="url(#p6d15ffc69b)" d="M 159.321775 241.657414 
L 159.321775 201.991633 
" style="fill:none;stroke:#1f77b4;stroke-width:1.5;"/>
    <path clip-path="url(#p6d15ffc69b)" d="M 164.416812 227.284054 
L 164.416812 187.618272 
" style="fill:none;stroke:#1f77b4;stroke-width:1.5;"/>
    <path clip-path="url(#p6d15ffc69b)" d="M 166.910498 232.258764 
L 166.910498 192.592983 
" style="fill:none;stroke:#1f77b4;stroke-width:1.5;"/>
    <path clip-path="url(#p6d15ffc69b)" d="M 169.023848 262.272173 
L 169.023848 222.606391 
" style="fill:none;stroke:#1f77b4;stroke-width:1.5;"/>
    <path clip-path="url(#p6d15ffc69b)" d="M 185.725053 267.419923 
L 185.725053 227.754141 
" style="fill:none;stroke:#1f77b4;stroke-width:1.5;"/>
    <path clip-path="url(#p6d15ffc69b)" d="M 187.232846 234.505509 
L 187.232846 194.839728 
" style="fill:none;stroke:#1f77b4;stroke-width:1.5;"/>
    <path clip-path="url(#p6d15ffc69b)" d="M 192.735726 214.982228 
L 192.735726 175.316446 
" style="fill:none;stroke:#1f77b4;stroke-width:1.5;"/>
    <path clip-path="url(#p6d15ffc69b)" d="M 203.198852 204.998818 
L 203.198852 165.333037 
" style="fill:none;stroke:#1f77b4;stroke-width:1.5;"/>
    <path clip-path="url(#p6d15ffc69b)" d="M 206.302972 206.682051 
L 206.302972 167.016269 
" style="fill:none;stroke:#1f77b4;stroke-width:1.5;"/>
    <path clip-path="url(#p6d15ffc69b)" d="M 210.864824 209.758177 
L 210.864824 170.092395 
" style="fill:none;stroke:#1f77b4;stroke-width:1.5;"/>
    <path clip-path="url(#p6d15ffc69b)" d="M 216.181318 204.572087 
L 216.181318 164.906305 
" style="fill:none;stroke:#1f77b4;stroke-width:1.5;"/>
    <path clip-path="url(#p6d15ffc69b)" d="M 222.146411 195.873616 
L 222.146411 156.207834 
" style="fill:none;stroke:#1f77b4;stroke-width:1.5;"/>
    <path clip-path="url(#p6d15ffc69b)" d="M 226.665753 221.452346 
L 226.665753 181.786565 
" style="fill:none;stroke:#1f77b4;stroke-width:1.5;"/>
    <path clip-path="url(#p6d15ffc69b)" d="M 239.655555 208.024588 
L 239.655555 168.358806 
" style="fill:none;stroke:#1f77b4;stroke-width:1.5;"/>
    <path clip-path="url(#p6d15ffc69b)" d="M 245.29892 185.251464 
L 245.29892 145.585682 
" style="fill:none;stroke:#1f77b4;stroke-width:1.5;"/>
    <path clip-path="url(#p6d15ffc69b)" d="M 246.500891 188.203263 
L 246.500891 148.537481 
" style="fill:none;stroke:#1f77b4;stroke-width:1.5;"/>
    <path clip-path="url(#p6d15ffc69b)" d="M 251.118638 193.2961 
L 251.118638 153.630318 
" style="fill:none;stroke:#1f77b4;stroke-width:1.5;"/>
    <path clip-path="url(#p6d15ffc69b)" d="M 253.607242 162.786862 
L 253.607242 123.121081 
" style="fill:none;stroke:#1f77b4;stroke-width:1.5;"/>
    <path clip-path="url(#p6d15ffc69b)" d="M 260.143285 202.708341 
L 260.143285 163.04256 
" style="fill:none;stroke:#1f77b4;stroke-width:1.5;"/>
    <path clip-path="url(#p6d15ffc69b)" d="M 260.223654 180.770579 
L 260.223654 141.104797 
" style="fill:none;stroke:#1f77b4;stroke-width:1.5;"/>
    <path clip-path="url(#p6d15ffc69b)" d="M 260.409064 212.545973 
L 260.409064 172.880192 
" style="fill:none;stroke:#1f77b4;stroke-width:1.5;"/>
    <path clip-path="url(#p6d15ffc69b)" d="M 272.591638 193.91159 
L 272.591638 154.245809 
" style="fill:none;stroke:#1f77b4;stroke-width:1.5;"/>
    <path clip-path="url(#p6d15ffc69b)" d="M 279.959528 211.898285 
L 279.959528 172.232503 
" style="fill:none;stroke:#1f77b4;stroke-width:1.5;"/>
    <path clip-path="url(#p6d15ffc69b)" d="M 285.865181 163.196883 
L 285.865181 123.531101 
" style="fill:none;stroke:#1f77b4;stroke-width:1.5;"/>
    <path clip-path="url(#p6d15ffc69b)" d="M 291.174685 171.559849 
L 291.174685 131.894068 
" style="fill:none;stroke:#1f77b4;stroke-width:1.5;"/>
    <path clip-path="url(#p6d15ffc69b)" d="M 293.666194 186.263872 
L 293.666194 146.59809 
" style="fill:none;stroke:#1f77b4;stroke-width:1.5;"/>
    <path clip-path="url(#p6d15ffc69b)" d="M 300.647858 198.016679 
L 300.647858 158.350898 
" style="fill:none;stroke:#1f77b4;stroke-width:1.5;"/>
    <path clip-path="url(#p6d15ffc69b)" d="M 310.811085 150.60236 
L 310.811085 110.936578 
" style="fill:none;stroke:#1f77b4;stroke-width:1.5;"/>
    <path clip-path="url(#p6d15ffc69b)" d="M 312.273729 157.316788 
L 312.273729 117.651006 
" style="fill:none;stroke:#1f77b4;stroke-width:1.5;"/>
    <path clip-path="url(#p6d15ffc69b)" d="M 315.61411 176.774627 
L 315.61411 137.108846 
" style="fill:none;stroke:#1f77b4;stroke-width:1.5;"/>
    <path clip-path="url(#p6d15ffc69b)" d="M 338.723786 167.636381 
L 338.723786 127.970599 
" style="fill:none;stroke:#1f77b4;stroke-width:1.5;"/>
    <path clip-path="url(#p6d15ffc69b)" d="M 363.80525 141.373127 
L 363.80525 101.707345 
" style="fill:none;stroke:#1f77b4;stroke-width:1.5;"/>
    <path clip-path="url(#p6d15ffc69b)" d="M 365.128894 154.837545 
L 365.128894 115.171763 
" style="fill:none;stroke:#1f77b4;stroke-width:1.5;"/>
    <path clip-path="url(#p6d15ffc69b)" d="M 372.343452 127.071601 
L 372.343452 87.40582 
" style="fill:none;stroke:#1f77b4;stroke-width:1.5;"/>
    <path clip-path="url(#p6d15ffc69b)" d="M 385.890656 140.846718 
L 385.890656 101.180937 
" style="fill:none;stroke:#1f77b4;stroke-width:1.5;"/>
    <path clip-path="url(#p6d15ffc69b)" d="M 388.779417 134.722544 
L 388.779417 95.056762 
" style="fill:none;stroke:#1f77b4;stroke-width:1.5;"/>
    <path clip-path="url(#p6d15ffc69b)" d="M 390.297151 154.825129 
L 390.297151 115.159348 
" style="fill:none;stroke:#1f77b4;stroke-width:1.5;"/>
    <path clip-path="url(#p6d15ffc69b)" d="M 390.318838 148.557042 
L 390.318838 108.891261 
" style="fill:none;stroke:#1f77b4;stroke-width:1.5;"/>
    <path clip-path="url(#p6d15ffc69b)" d="M 396.276565 115.128567 
L 396.276565 75.462785 
" style="fill:none;stroke:#1f77b4;stroke-width:1.5;"/>
    <path clip-path="url(#p6d15ffc69b)" d="M 398.995653 90.941904 
L 398.995653 51.276123 
" style="fill:none;stroke:#1f77b4;stroke-width:1.5;"/>
    <path clip-path="url(#p6d15ffc69b)" d="M 400.455975 104.983383 
L 400.455975 65.317601 
" style="fill:none;stroke:#1f77b4;stroke-width:1.5;"/>
    <path clip-path="url(#p6d15ffc69b)" d="M 407.06324 134.103849 
L 407.06324 94.438068 
" style="fill:none;stroke:#1f77b4;stroke-width:1.5;"/>
    <path clip-path="url(#p6d15ffc69b)" d="M 454.380006 124.037334 
L 454.380006 84.371553 
" style="fill:none;stroke:#1f77b4;stroke-width:1.5;"/>
    <path clip-path="url(#p6d15ffc69b)" d="M 457.198603 76.016898 
L 457.198603 36.351117 
" style="fill:none;stroke:#1f77b4;stroke-width:1.5;"/>
    <path clip-path="url(#p6d15ffc69b)" d="M 458.731826 79.878028 
L 458.731826 40.212246 
" style="fill:none;stroke:#1f77b4;stroke-width:1.5;"/>
    <path clip-path="url(#p6d15ffc69b)" d="M 469.738584 64.950355 
L 469.738584 25.284573 
" style="fill:none;stroke:#1f77b4;stroke-width:1.5;"/>
    <path clip-path="url(#p6d15ffc69b)" d="M 471.548293 109.070139 
L 471.548293 69.404357 
" style="fill:none;stroke:#1f77b4;stroke-width:1.5;"/>
    <path clip-path="url(#p6d15ffc69b)" d="M 474.827238 80.429935 
L 474.827238 40.764153 
" style="fill:none;stroke:#1f77b4;stroke-width:1.5;"/>
    <path clip-path="url(#p6d15ffc69b)" d="M 485.764401 105.303464 
L 485.764401 65.637683 
" style="fill:none;stroke:#1f77b4;stroke-width:1.5;"/>
    <path clip-path="url(#p6d15ffc69b)" d="M 501.59442 61.691236 
L 501.59442 22.025455 
" style="fill:none;stroke:#1f77b4;stroke-width:1.5;"/>
    <path clip-path="url(#p6d15ffc69b)" d="M 519.975852 103.562193 
L 519.975852 63.896412 
" style="fill:none;stroke:#1f77b4;stroke-width:1.5;"/>
   </g>
   <g id="line2d_12">
    <path clip-path="url(#p6d15ffc69b)" d="M 63.430398 269.748097 
L 70.258818 266.359754 
L 75.408229 263.804556 
L 77.429102 262.801776 
L 88.695138 257.211437 
L 88.972592 257.073761 
L 90.604233 256.264121 
L 92.5642 255.291562 
L 97.17328 253.004483 
L 112.909619 245.195927 
L 125.303377 239.045999 
L 128.412593 237.50317 
L 130.660171 236.387895 
L 131.856422 235.794301 
L 140.05084 231.728135 
L 143.522094 230.005658 
L 146.916999 228.321067 
L 152.797597 225.403045 
L 154.921895 224.348943 
L 159.321775 222.165671 
L 164.416812 219.637455 
L 166.910498 218.400058 
L 169.023848 217.351389 
L 185.725053 209.064055 
L 187.232846 208.315871 
L 192.735726 205.585277 
L 203.198852 200.393352 
L 206.302972 198.853051 
L 210.864824 196.589407 
L 216.181318 193.9513 
L 222.146411 190.991351 
L 226.665753 188.7488 
L 239.655555 182.303108 
L 245.29892 179.502804 
L 246.500891 178.906372 
L 251.118638 176.614992 
L 253.607242 175.380118 
L 260.143285 172.136857 
L 260.223654 172.096976 
L 260.409064 172.004974 
L 272.591638 165.959838 
L 279.959528 162.303804 
L 285.865181 159.37335 
L 291.174685 156.738712 
L 293.666194 155.502396 
L 300.647858 152.038012 
L 310.811085 146.9949 
L 312.273729 146.269119 
L 315.61411 144.611583 
L 338.723786 133.144291 
L 363.80525 120.698574 
L 365.128894 120.041767 
L 372.343452 116.461819 
L 385.890656 109.739537 
L 388.779417 108.3061 
L 390.297151 107.552983 
L 390.318838 107.542221 
L 396.276565 104.585927 
L 398.995653 103.236684 
L 400.455975 102.512055 
L 407.06324 99.233453 
L 454.380006 75.754319 
L 457.198603 74.355698 
L 458.731826 73.594895 
L 469.738584 68.133212 
L 471.548293 67.235213 
L 474.827238 65.608162 
L 485.764401 60.181014 
L 501.59442 52.325973 
L 519.975852 43.204891 
" style="fill:none;stroke:#ff7f0e;stroke-linecap:square;stroke-width:2;"/>
   </g>
   <g id="line2d_13">
    <defs>
     <path d="M 0 3 
C 0.795609 3 1.55874 2.683901 2.12132 2.12132 
C 2.683901 1.55874 3 0.795609 3 0 
C 3 -0.795609 2.683901 -1.55874 2.12132 -2.12132 
C 1.55874 -2.683901 0.795609 -3 0 -3 
C -0.795609 -3 -1.55874 -2.683901 -2.12132 -2.12132 
C -2.683901 -1.55874 -3 -0.795609 -3 0 
C -3 0.795609 -2.683901 1.55874 -2.12132 2.12132 
C -1.55874 2.683901 -0.795609 3 0 3 
z
" id="ma702119827" style="stroke:#1f77b4;"/>
    </defs>
    <g clip-path="url(#p6d15ffc69b)">
     <use style="fill:#1f77b4;stroke:#1f77b4;" x="63.430398" xlink:href="#ma702119827" y="298.701655"/>
     <use style="fill:#1f77b4;stroke:#1f77b4;" x="70.258818" xlink:href="#ma702119827" y="249.791419"/>
     <use style="fill:#1f77b4;stroke:#1f77b4;" x="75.408229" xlink:href="#ma702119827" y="275.888209"/>
     <use style="fill:#1f77b4;stroke:#1f77b4;" x="77.429102" xlink:href="#ma702119827" y="282.96863"/>
     <use style="fill:#1f77b4;stroke:#1f77b4;" x="88.695138" xlink:href="#ma702119827" y="250.553587"/>
     <use style="fill:#1f77b4;stroke:#1f77b4;" x="88.972592" xlink:href="#ma702119827" y="280.065547"/>
     <use style="fill:#1f77b4;stroke:#1f77b4;" x="90.604233" xlink:href="#ma702119827" y="271.446347"/>
     <use style="fill:#1f77b4;stroke:#1f77b4;" x="92.5642" xlink:href="#ma702119827" y="237.663984"/>
     <use style="fill:#1f77b4;stroke:#1f77b4;" x="97.17328" xlink:href="#ma702119827" y="260.265804"/>
     <use style="fill:#1f77b4;stroke:#1f77b4;" x="112.909619" xlink:href="#ma702119827" y="282.05498"/>
     <use style="fill:#1f77b4;stroke:#1f77b4;" x="125.303377" xlink:href="#ma702119827" y="206.460162"/>
     <use style="fill:#1f77b4;stroke:#1f77b4;" x="128.412593" xlink:href="#ma702119827" y="248.756081"/>
     <use style="fill:#1f77b4;stroke:#1f77b4;" x="130.660171" xlink:href="#ma702119827" y="231.368216"/>
     <use style="fill:#1f77b4;stroke:#1f77b4;" x="131.856422" xlink:href="#ma702119827" y="231.424016"/>
     <use style="fill:#1f77b4;stroke:#1f77b4;" x="140.05084" xlink:href="#ma702119827" y="200.85396"/>
     <use style="fill:#1f77b4;stroke:#1f77b4;" x="143.522094" xlink:href="#ma702119827" y="238.534067"/>
     <use style="fill:#1f77b4;stroke:#1f77b4;" x="146.916999" xlink:href="#ma702119827" y="209.421181"/>
     <use style="fill:#1f77b4;stroke:#1f77b4;" x="152.797597" xlink:href="#ma702119827" y="252.596283"/>
     <use style="fill:#1f77b4;stroke:#1f77b4;" x="154.921895" xlink:href="#ma702119827" y="223.451824"/>
     <use style="fill:#1f77b4;stroke:#1f77b4;" x="159.321775" xlink:href="#ma702119827" y="221.824524"/>
     <use style="fill:#1f77b4;stroke:#1f77b4;" x="164.416812" xlink:href="#ma702119827" y="207.451163"/>
     <use style="fill:#1f77b4;stroke:#1f77b4;" x="166.910498" xlink:href="#ma702119827" y="212.425874"/>
     <use style="fill:#1f77b4;stroke:#1f77b4;" x="169.023848" xlink:href="#ma702119827" y="242.439282"/>
     <use style="fill:#1f77b4;stroke:#1f77b4;" x="185.725053" xlink:href="#ma702119827" y="247.587032"/>
     <use style="fill:#1f77b4;stroke:#1f77b4;" x="187.232846" xlink:href="#ma702119827" y="214.672618"/>
     <use style="fill:#1f77b4;stroke:#1f77b4;" x="192.735726" xlink:href="#ma702119827" y="195.149337"/>
     <use style="fill:#1f77b4;stroke:#1f77b4;" x="203.198852" xlink:href="#ma702119827" y="185.165927"/>
     <use style="fill:#1f77b4;stroke:#1f77b4;" x="206.302972" xlink:href="#ma702119827" y="186.84916"/>
     <use style="fill:#1f77b4;stroke:#1f77b4;" x="210.864824" xlink:href="#ma702119827" y="189.925286"/>
     <use style="fill:#1f77b4;stroke:#1f77b4;" x="216.181318" xlink:href="#ma702119827" y="184.739196"/>
     <use style="fill:#1f77b4;stroke:#1f77b4;" x="222.146411" xlink:href="#ma702119827" y="176.040725"/>
     <use style="fill:#1f77b4;stroke:#1f77b4;" x="226.665753" xlink:href="#ma702119827" y="201.619456"/>
     <use style="fill:#1f77b4;stroke:#1f77b4;" x="239.655555" xlink:href="#ma702119827" y="188.191697"/>
     <use style="fill:#1f77b4;stroke:#1f77b4;" x="245.29892" xlink:href="#ma702119827" y="165.418573"/>
     <use style="fill:#1f77b4;stroke:#1f77b4;" x="246.500891" xlink:href="#ma702119827" y="168.370372"/>
     <use style="fill:#1f77b4;stroke:#1f77b4;" x="251.118638" xlink:href="#ma702119827" y="173.463209"/>
     <use style="fill:#1f77b4;stroke:#1f77b4;" x="253.607242" xlink:href="#ma702119827" y="142.953971"/>
     <use style="fill:#1f77b4;stroke:#1f77b4;" x="260.143285" xlink:href="#ma702119827" y="182.87545"/>
     <use style="fill:#1f77b4;stroke:#1f77b4;" x="260.223654" xlink:href="#ma702119827" y="160.937688"/>
     <use style="fill:#1f77b4;stroke:#1f77b4;" x="260.409064" xlink:href="#ma702119827" y="192.713082"/>
     <use style="fill:#1f77b4;stroke:#1f77b4;" x="272.591638" xlink:href="#ma702119827" y="174.078699"/>
     <use style="fill:#1f77b4;stroke:#1f77b4;" x="279.959528" xlink:href="#ma702119827" y="192.065394"/>
     <use style="fill:#1f77b4;stroke:#1f77b4;" x="285.865181" xlink:href="#ma702119827" y="143.363992"/>
     <use style="fill:#1f77b4;stroke:#1f77b4;" x="291.174685" xlink:href="#ma702119827" y="151.726959"/>
     <use style="fill:#1f77b4;stroke:#1f77b4;" x="293.666194" xlink:href="#ma702119827" y="166.430981"/>
     <use style="fill:#1f77b4;stroke:#1f77b4;" x="300.647858" xlink:href="#ma702119827" y="178.183789"/>
     <use style="fill:#1f77b4;stroke:#1f77b4;" x="310.811085" xlink:href="#ma702119827" y="130.769469"/>
     <use style="fill:#1f77b4;stroke:#1f77b4;" x="312.273729" xlink:href="#ma702119827" y="137.483897"/>
     <use style="fill:#1f77b4;stroke:#1f77b4;" x="315.61411" xlink:href="#ma702119827" y="156.941737"/>
     <use style="fill:#1f77b4;stroke:#1f77b4;" x="338.723786" xlink:href="#ma702119827" y="147.80349"/>
     <use style="fill:#1f77b4;stroke:#1f77b4;" x="363.80525" xlink:href="#ma702119827" y="121.540236"/>
     <use style="fill:#1f77b4;stroke:#1f77b4;" x="365.128894" xlink:href="#ma702119827" y="135.004654"/>
     <use style="fill:#1f77b4;stroke:#1f77b4;" x="372.343452" xlink:href="#ma702119827" y="107.23871"/>
     <use style="fill:#1f77b4;stroke:#1f77b4;" x="385.890656" xlink:href="#ma702119827" y="121.013828"/>
     <use style="fill:#1f77b4;stroke:#1f77b4;" x="388.779417" xlink:href="#ma702119827" y="114.889653"/>
     <use style="fill:#1f77b4;stroke:#1f77b4;" x="390.297151" xlink:href="#ma702119827" y="134.992238"/>
     <use style="fill:#1f77b4;stroke:#1f77b4;" x="390.318838" xlink:href="#ma702119827" y="128.724151"/>
     <use style="fill:#1f77b4;stroke:#1f77b4;" x="396.276565" xlink:href="#ma702119827" y="95.295676"/>
     <use style="fill:#1f77b4;stroke:#1f77b4;" x="398.995653" xlink:href="#ma702119827" y="71.109013"/>
     <use style="fill:#1f77b4;stroke:#1f77b4;" x="400.455975" xlink:href="#ma702119827" y="85.150492"/>
     <use style="fill:#1f77b4;stroke:#1f77b4;" x="407.06324" xlink:href="#ma702119827" y="114.270958"/>
     <use style="fill:#1f77b4;stroke:#1f77b4;" x="454.380006" xlink:href="#ma702119827" y="104.204444"/>
     <use style="fill:#1f77b4;stroke:#1f77b4;" x="457.198603" xlink:href="#ma702119827" y="56.184008"/>
     <use style="fill:#1f77b4;stroke:#1f77b4;" x="458.731826" xlink:href="#ma702119827" y="60.045137"/>
     <use style="fill:#1f77b4;stroke:#1f77b4;" x="469.738584" xlink:href="#ma702119827" y="45.117464"/>
     <use style="fill:#1f77b4;stroke:#1f77b4;" x="471.548293" xlink:href="#ma702119827" y="89.237248"/>
     <use style="fill:#1f77b4;stroke:#1f77b4;" x="474.827238" xlink:href="#ma702119827" y="60.597044"/>
     <use style="fill:#1f77b4;stroke:#1f77b4;" x="485.764401" xlink:href="#ma702119827" y="85.470574"/>
     <use style="fill:#1f77b4;stroke:#1f77b4;" x="501.59442" xlink:href="#ma702119827" y="41.858345"/>
     <use style="fill:#1f77b4;stroke:#1f77b4;" x="519.975852" xlink:href="#ma702119827" y="83.729303"/>
    </g>
   </g>
   <g id="patch_3">
    <path d="M 40.603125 333.36 
L 40.603125 7.2 
" style="fill:none;stroke:#000000;stroke-linecap:square;stroke-linejoin:miter;stroke-width:0.8;"/>
   </g>
   <g id="patch_4">
    <path d="M 542.803125 333.36 
L 542.803125 7.2 
" style="fill:none;stroke:#000000;stroke-linecap:square;stroke-linejoin:miter;stroke-width:0.8;"/>
   </g>
   <g id="patch_5">
    <path d="M 40.603125 333.36 
L 542.803125 333.36 
" style="fill:none;stroke:#000000;stroke-linecap:square;stroke-linejoin:miter;stroke-width:0.8;"/>
   </g>
   <g id="patch_6">
    <path d="M 40.603125 7.2 
L 542.803125 7.2 
" style="fill:none;stroke:#000000;stroke-linecap:square;stroke-linejoin:miter;stroke-width:0.8;"/>
   </g>
   <g id="legend_1">
    <g id="patch_7">
     <path d="M 47.603125 44.55625 
L 110.742188 44.55625 
Q 112.742188 44.55625 112.742188 42.55625 
L 112.742188 14.2 
Q 112.742188 12.2 110.742188 12.2 
L 47.603125 12.2 
Q 45.603125 12.2 45.603125 14.2 
L 45.603125 42.55625 
Q 45.603125 44.55625 47.603125 44.55625 
z
" style="fill:#ffffff;opacity:0.8;stroke:#cccccc;stroke-linejoin:miter;"/>
    </g>
    <g id="line2d_14">
     <path d="M 49.603125 20.298437 
L 69.603125 20.298437 
" style="fill:none;stroke:#ff7f0e;stroke-linecap:square;stroke-width:2;"/>
    </g>
    <g id="line2d_15"/>
    <g id="text_14">
     <!-- model -->
     <g transform="translate(77.603125 23.798437)scale(0.1 -0.1)">
      <defs>
       <path d="M 52 44.1875 
Q 55.375 50.25 60.0625 53.125 
Q 64.75 56 71.09375 56 
Q 79.640625 56 84.28125 50.015625 
Q 88.921875 44.046875 88.921875 33.015625 
L 88.921875 0 
L 79.890625 0 
L 79.890625 32.71875 
Q 79.890625 40.578125 77.09375 44.375 
Q 74.3125 48.1875 68.609375 48.1875 
Q 61.625 48.1875 57.5625 43.546875 
Q 53.515625 38.921875 53.515625 30.90625 
L 53.515625 0 
L 44.484375 0 
L 44.484375 32.71875 
Q 44.484375 40.625 41.703125 44.40625 
Q 38.921875 48.1875 33.109375 48.1875 
Q 26.21875 48.1875 22.15625 43.53125 
Q 18.109375 38.875 18.109375 30.90625 
L 18.109375 0 
L 9.078125 0 
L 9.078125 54.6875 
L 18.109375 54.6875 
L 18.109375 46.1875 
Q 21.1875 51.21875 25.484375 53.609375 
Q 29.78125 56 35.6875 56 
Q 41.65625 56 45.828125 52.96875 
Q 50 49.953125 52 44.1875 
z
" id="DejaVuSans-109"/>
       <path d="M 30.609375 48.390625 
Q 23.390625 48.390625 19.1875 42.75 
Q 14.984375 37.109375 14.984375 27.296875 
Q 14.984375 17.484375 19.15625 11.84375 
Q 23.34375 6.203125 30.609375 6.203125 
Q 37.796875 6.203125 41.984375 11.859375 
Q 46.1875 17.53125 46.1875 27.296875 
Q 46.1875 37.015625 41.984375 42.703125 
Q 37.796875 48.390625 30.609375 48.390625 
z
M 30.609375 56 
Q 42.328125 56 49.015625 48.375 
Q 55.71875 40.765625 55.71875 27.296875 
Q 55.71875 13.875 49.015625 6.21875 
Q 42.328125 -1.421875 30.609375 -1.421875 
Q 18.84375 -1.421875 12.171875 6.21875 
Q 5.515625 13.875 5.515625 27.296875 
Q 5.515625 40.765625 12.171875 48.375 
Q 18.84375 56 30.609375 56 
z
" id="DejaVuSans-111"/>
       <path d="M 45.40625 46.390625 
L 45.40625 75.984375 
L 54.390625 75.984375 
L 54.390625 0 
L 45.40625 0 
L 45.40625 8.203125 
Q 42.578125 3.328125 38.25 0.953125 
Q 33.9375 -1.421875 27.875 -1.421875 
Q 17.96875 -1.421875 11.734375 6.484375 
Q 5.515625 14.40625 5.515625 27.296875 
Q 5.515625 40.1875 11.734375 48.09375 
Q 17.96875 56 27.875 56 
Q 33.9375 56 38.25 53.625 
Q 42.578125 51.265625 45.40625 46.390625 
z
M 14.796875 27.296875 
Q 14.796875 17.390625 18.875 11.75 
Q 22.953125 6.109375 30.078125 6.109375 
Q 37.203125 6.109375 41.296875 11.75 
Q 45.40625 17.390625 45.40625 27.296875 
Q 45.40625 37.203125 41.296875 42.84375 
Q 37.203125 48.484375 30.078125 48.484375 
Q 22.953125 48.484375 18.875 42.84375 
Q 14.796875 37.203125 14.796875 27.296875 
z
" id="DejaVuSans-100"/>
       <path d="M 56.203125 29.59375 
L 56.203125 25.203125 
L 14.890625 25.203125 
Q 15.484375 15.921875 20.484375 11.0625 
Q 25.484375 6.203125 34.421875 6.203125 
Q 39.59375 6.203125 44.453125 7.46875 
Q 49.3125 8.734375 54.109375 11.28125 
L 54.109375 2.78125 
Q 49.265625 0.734375 44.1875 -0.34375 
Q 39.109375 -1.421875 33.890625 -1.421875 
Q 20.796875 -1.421875 13.15625 6.1875 
Q 5.515625 13.8125 5.515625 26.8125 
Q 5.515625 40.234375 12.765625 48.109375 
Q 20.015625 56 32.328125 56 
Q 43.359375 56 49.78125 48.890625 
Q 56.203125 41.796875 56.203125 29.59375 
z
M 47.21875 32.234375 
Q 47.125 39.59375 43.09375 43.984375 
Q 39.0625 48.390625 32.421875 48.390625 
Q 24.90625 48.390625 20.390625 44.140625 
Q 15.875 39.890625 15.1875 32.171875 
z
" id="DejaVuSans-101"/>
       <path d="M 9.421875 75.984375 
L 18.40625 75.984375 
L 18.40625 0 
L 9.421875 0 
z
" id="DejaVuSans-108"/>
      </defs>
      <use xlink:href="#DejaVuSans-109"/>
      <use x="97.412109" xlink:href="#DejaVuSans-111"/>
      <use x="158.59375" xlink:href="#DejaVuSans-100"/>
      <use x="222.070312" xlink:href="#DejaVuSans-101"/>
      <use x="283.59375" xlink:href="#DejaVuSans-108"/>
     </g>
    </g>
    <g id="LineCollection_2">
     <path d="M 59.603125 39.976562 
L 59.603125 29.976562 
" style="fill:none;stroke:#1f77b4;stroke-width:1.5;"/>
    </g>
    <g id="line2d_16"/>
    <g id="line2d_17">
     <g>
      <use style="fill:#1f77b4;stroke:#1f77b4;" x="59.603125" xlink:href="#ma702119827" y="34.976562"/>
     </g>
    </g>
    <g id="text_15">
     <!-- data -->
     <g transform="translate(77.603125 38.476562)scale(0.1 -0.1)">
      <defs>
       <path d="M 34.28125 27.484375 
Q 23.390625 27.484375 19.1875 25 
Q 14.984375 22.515625 14.984375 16.5 
Q 14.984375 11.71875 18.140625 8.90625 
Q 21.296875 6.109375 26.703125 6.109375 
Q 34.1875 6.109375 38.703125 11.40625 
Q 43.21875 16.703125 43.21875 25.484375 
L 43.21875 27.484375 
z
M 52.203125 31.203125 
L 52.203125 0 
L 43.21875 0 
L 43.21875 8.296875 
Q 40.140625 3.328125 35.546875 0.953125 
Q 30.953125 -1.421875 24.3125 -1.421875 
Q 15.921875 -1.421875 10.953125 3.296875 
Q 6 8.015625 6 15.921875 
Q 6 25.140625 12.171875 29.828125 
Q 18.359375 34.515625 30.609375 34.515625 
L 43.21875 34.515625 
L 43.21875 35.40625 
Q 43.21875 41.609375 39.140625 45 
Q 35.0625 48.390625 27.6875 48.390625 
Q 23 48.390625 18.546875 47.265625 
Q 14.109375 46.140625 10.015625 43.890625 
L 10.015625 52.203125 
Q 14.9375 54.109375 19.578125 55.046875 
Q 24.21875 56 28.609375 56 
Q 40.484375 56 46.34375 49.84375 
Q 52.203125 43.703125 52.203125 31.203125 
z
" id="DejaVuSans-97"/>
       <path d="M 18.3125 70.21875 
L 18.3125 54.6875 
L 36.8125 54.6875 
L 36.8125 47.703125 
L 18.3125 47.703125 
L 18.3125 18.015625 
Q 18.3125 11.328125 20.140625 9.421875 
Q 21.96875 7.515625 27.59375 7.515625 
L 36.8125 7.515625 
L 36.8125 0 
L 27.59375 0 
Q 17.1875 0 13.234375 3.875 
Q 9.28125 7.765625 9.28125 18.015625 
L 9.28125 47.703125 
L 2.6875 47.703125 
L 2.6875 54.6875 
L 9.28125 54.6875 
L 9.28125 70.21875 
z
" id="DejaVuSans-116"/>
      </defs>
      <use xlink:href="#DejaVuSans-100"/>
      <use x="63.476562" xlink:href="#DejaVuSans-97"/>
      <use x="124.755859" xlink:href="#DejaVuSans-116"/>
      <use x="163.964844" xlink:href="#DejaVuSans-97"/>
     </g>
    </g>
   </g>
  </g>
 </g>
 <defs>
  <clipPath id="p6d15ffc69b">
   <rect height="326.16" width="502.2" x="40.603125" y="7.2"/>
  </clipPath>
 </defs>
</svg>
